<svg id="Layer_1" data-name="Layer 1" xmlns="http://www.w3.org/2000/svg" viewBox="0 0 573 286"><defs><style>.cls-1,.cls-4{isolation:isolate;}.cls-2{fill:#f47a20;}.cls-3{opacity:0.5;}.cls-4{fill:#f1b61f;}.cls-5{opacity:0.2;}.cls-6{fill:none;stroke:#333;stroke-miterlimit:10;}</style></defs><title>12-column-grid</title><g id="Columns" class="cls-1"><rect class="cls-2" x="44" y="22" width="89" height="44"/><rect class="cls-2" x="176" y="22" width="89" height="44"/><rect class="cls-2" x="308" y="22" width="89" height="44"/><rect class="cls-2" x="440" y="22" width="89" height="44"/><rect class="cls-2" x="396" y="88" width="133" height="44"/><rect class="cls-2" x="220" y="88" width="133" height="44"/><rect class="cls-2" x="44" y="88" width="133" height="44"/><rect class="cls-2" x="44" y="154" width="221" height="44"/><rect class="cls-2" x="44" y="220" width="485" height="44"/><rect class="cls-2" x="308" y="154" width="221" height="44"/></g><g id="Rows" class="cls-3"><rect class="cls-4" width="22.5" height="286"/><rect class="cls-4" x="550.5" width="22.5" height="286"/><rect class="cls-4" x="22.5" y="22" width="22.5" height="44"/><rect class="cls-4" x="132" y="22" width="45" height="44"/><rect class="cls-4" x="264" y="22" width="45" height="44"/><rect class="cls-4" x="396" y="22" width="45" height="44"/><rect class="cls-4" x="528" y="22" width="23.5" height="44"/><rect class="cls-4" x="22.5" y="88" width="22.5" height="44"/><rect class="cls-4" x="22.5" y="154" width="22.5" height="44"/><rect class="cls-4" x="22.5" y="220" width="22.5" height="44"/><rect class="cls-4" x="528" y="154" width="23" height="44"/><rect class="cls-4" x="264" y="154" width="45" height="44"/><rect class="cls-4" x="528" y="220" width="22.5" height="44"/><rect class="cls-4" x="176" y="88" width="45" height="44"/><rect class="cls-4" x="352" y="88" width="45" height="44"/><rect class="cls-4" x="528" y="88" width="23" height="44"/></g><g class="cls-5"><line class="cls-6" x1="22.5" x2="22.5" y2="286"/><line class="cls-6" x1="66.5" x2="66.5" y2="286"/><line class="cls-6" x1="110.5" x2="110.5" y2="286"/><line class="cls-6" x1="154.5" x2="154.5" y2="286"/><line class="cls-6" x1="198.5" x2="198.5" y2="286"/><line class="cls-6" x1="242.5" x2="242.5" y2="286"/><line class="cls-6" x1="286.5" x2="286.5" y2="286"/><line class="cls-6" x1="330.5" x2="330.5" y2="286"/><line class="cls-6" x1="374.5" x2="374.5" y2="286"/><line class="cls-6" x1="418.5" x2="418.5" y2="286"/><line class="cls-6" x1="462.5" x2="462.5" y2="286"/><line class="cls-6" x1="506.5" x2="506.5" y2="286"/><line class="cls-6" x1="550.5" x2="550.5" y2="286"/></g></svg>