<?xml version="1.0" encoding="UTF-8" standalone="no"?>
<svg width="573px" height="286px" viewBox="0 0 573 286" version="1.1" xmlns="http://www.w3.org/2000/svg" xmlns:xlink="http://www.w3.org/1999/xlink">
    <!-- Generator: Sketch 3.8.2 (29753) - http://www.bohemiancoding.com/sketch -->
    <title>13-column-grid</title>
    <desc>Created with Sketch.</desc>
    <defs></defs>
    <g id="Page-1" stroke="none" stroke-width="1" fill="none" fill-rule="evenodd">
        <g id="13-column-grid">
            <g>
                <g id="Columns" transform="translate(44.000000, 22.000000)" fill="#6577CF">
                    <rect id="Rectangle-path" x="0" y="0" width="89" height="44"></rect>
                    <rect id="Rectangle-path" x="132" y="0" width="89" height="44"></rect>
                    <rect id="Rectangle-path" x="264" y="0" width="89" height="44"></rect>
                    <rect id="Rectangle-path" x="396" y="0" width="89" height="44"></rect>
                    <rect id="Rectangle-path" x="352" y="66" width="133" height="44"></rect>
                    <rect id="Rectangle-path" x="176" y="66" width="133" height="44"></rect>
                    <rect id="Rectangle-path" x="0" y="66" width="133" height="44"></rect>
                    <rect id="Rectangle-path" x="0" y="132" width="221" height="44"></rect>
                    <rect id="Rectangle-path" x="0" y="198" width="485" height="44"></rect>
                    <rect id="Rectangle-path" x="264" y="132" width="221" height="44"></rect>
                </g>
                <g id="Padding" transform="translate(0.000000, 22.000000)" fill="#DDE1EF" opacity="0.5">
                    <rect id="Rectangle-path" x="0" y="0" width="45" height="44"></rect>
                    <rect id="Rectangle-path" x="132" y="0" width="45" height="44"></rect>
                    <rect id="Rectangle-path" x="264" y="0" width="45" height="44"></rect>
                    <rect id="Rectangle-path" x="396" y="0" width="45" height="44"></rect>
                    <rect id="Rectangle-path" x="528" y="0" width="45" height="44"></rect>
                    <rect id="Rectangle-path" x="0" y="66" width="45" height="44"></rect>
                    <rect id="Rectangle-path" x="0" y="132" width="45" height="44"></rect>
                    <rect id="Rectangle-path" x="0" y="198" width="45" height="44"></rect>
                    <rect id="Rectangle-path" x="528" y="132" width="45" height="44"></rect>
                    <rect id="Rectangle-path" x="264" y="132" width="45" height="44"></rect>
                    <rect id="Rectangle-path" x="528" y="198" width="45" height="44"></rect>
                    <rect id="Rectangle-path" x="176" y="66" width="45" height="44"></rect>
                    <rect id="Rectangle-path" x="352" y="66" width="45" height="44"></rect>
                    <rect id="Rectangle-path" x="528" y="66" width="45" height="44"></rect>
                </g>
                <g id="Lines" opacity="0.150000006" stroke="#0D1622">
                    <path d="M0.5,0 L0.5,286" id="Shape"></path>
                    <path d="M44.5,0 L44.5,286" id="Shape"></path>
                    <path d="M88.5,0 L88.5,286" id="Shape"></path>
                    <path d="M132.5,0 L132.5,286" id="Shape"></path>
                    <path d="M176.5,0 L176.5,286" id="Shape"></path>
                    <path d="M220.5,0 L220.5,286" id="Shape"></path>
                    <path d="M264.5,0 L264.5,286" id="Shape"></path>
                    <path d="M308.5,0 L308.5,286" id="Shape"></path>
                    <path d="M352.5,0 L352.5,286" id="Shape"></path>
                    <path d="M396.5,0 L396.5,286" id="Shape"></path>
                    <path d="M440.5,0 L440.5,286" id="Shape"></path>
                    <path d="M484.5,0 L484.5,286" id="Shape"></path>
                    <path d="M528.5,0 L528.5,286" id="Shape"></path>
                    <path d="M572.5,0 L572.5,286" id="Shape"></path>
                </g>
            </g>
        </g>
    </g>
</svg>