<svg id="Layer_1" data-name="Layer 1" xmlns="http://www.w3.org/2000/svg" viewBox="0 0 577 290"><defs><style>.cls-1{fill:#f47a20;}.cls-2{fill:#f1b61f;opacity:0.5;isolation:isolate;}.cls-3{opacity:0.3;}.cls-4{fill:none;stroke:#333;stroke-miterlimit:10;}</style></defs><title>13-column-grid</title><rect class="cls-1" x="46" y="24" width="89" height="44"/><rect class="cls-1" x="178" y="24" width="89" height="44"/><rect class="cls-1" x="310" y="24" width="89" height="44"/><rect class="cls-1" x="442" y="24" width="89" height="44"/><rect class="cls-1" x="398" y="90" width="133" height="44"/><rect class="cls-1" x="222" y="90" width="133" height="44"/><rect class="cls-1" x="46" y="90" width="133" height="44"/><rect class="cls-1" x="46" y="156" width="221" height="44"/><rect class="cls-1" x="46" y="222" width="485" height="44"/><rect class="cls-1" x="310" y="156" width="221" height="44"/><rect class="cls-2" x="2" y="24" width="45" height="44"/><rect class="cls-2" x="134" y="24" width="45" height="44"/><rect class="cls-2" x="266" y="24" width="45" height="44"/><rect class="cls-2" x="398" y="24" width="45" height="44"/><rect class="cls-2" x="530" y="24" width="45" height="44"/><rect class="cls-2" x="2" y="90" width="45" height="44"/><rect class="cls-2" x="2" y="156" width="45" height="44"/><rect class="cls-2" x="2" y="222" width="45" height="44"/><rect class="cls-2" x="530" y="156" width="45" height="44"/><rect class="cls-2" x="266" y="156" width="45" height="44"/><rect class="cls-2" x="530" y="222" width="45" height="44"/><rect class="cls-2" x="178" y="90" width="45" height="44"/><rect class="cls-2" x="354" y="90" width="45" height="44"/><rect class="cls-2" x="530" y="90" width="45" height="44"/><g class="cls-3"><line class="cls-4" x1="2.5" y1="2" x2="2.5" y2="288"/><line class="cls-4" x1="46.5" y1="2" x2="46.5" y2="288"/><line class="cls-4" x1="90.5" y1="2" x2="90.5" y2="288"/><line class="cls-4" x1="134.5" y1="2" x2="134.5" y2="288"/><line class="cls-4" x1="178.5" y1="2" x2="178.5" y2="288"/><line class="cls-4" x1="222.5" y1="2" x2="222.5" y2="288"/><line class="cls-4" x1="266.5" y1="2" x2="266.5" y2="288"/><line class="cls-4" x1="310.5" y1="2" x2="310.5" y2="288"/><line class="cls-4" x1="354.5" y1="2" x2="354.5" y2="288"/><line class="cls-4" x1="398.5" y1="2" x2="398.5" y2="288"/><line class="cls-4" x1="442.5" y1="2" x2="442.5" y2="288"/><line class="cls-4" x1="486.5" y1="2" x2="486.5" y2="288"/><line class="cls-4" x1="530.5" y1="2" x2="530.5" y2="288"/><line class="cls-4" x1="574.5" y1="2" x2="574.5" y2="288"/></g></svg>