<?xml version="1.0" encoding="UTF-8" standalone="no"?>
<svg width="1441px" height="482px" viewBox="0 0 1441 482" version="1.1" xmlns="http://www.w3.org/2000/svg" xmlns:xlink="http://www.w3.org/1999/xlink">
    <!-- Generator: Sketch 3.8.2 (29753) - http://www.bohemiancoding.com/sketch -->
    <title>lines</title>
    <desc>Created with Sketch.</desc>
    <defs></defs>
    <g id="Symbols" stroke="none" stroke-width="1" fill="none" fill-rule="evenodd" stroke-linecap="round">
        <g id="Top-BG" transform="translate(1.000000, 1.000000)">
            <g id="lines">
                <path d="M1003.95778,480 C1003.95778,480 1022.65222,461.81 1022.65222,449.178889 C1022.65222,444.126667 1018.61,439.073333 1012.54778,439.073333 C1006.48444,439.073333 964.547778,463.326667 930.694444,463.326667 C896.842222,463.326667 889.263333,459.433333 873.6,459.433333 C852.378889,459.433333 828.126667,476.968889 828.126667,480 M1440,92.9688889 C1426.35778,92.9688889 1395.53667,135.41 1379.36778,151.578889 C1331.87333,199.073333 1315.70556,194.526667 1315.70556,203.621111 C1315.70556,207.157778 1320.75778,209.178889 1330.86333,209.178889 C1342.48444,209.178889 1395.53667,188.968889 1415.24222,169.263333 C1430.14667,154.357778 1436.46333,137.936667 1440,137.936667 M302.652222,0 C302.652222,4.04222222 337.352222,26.7788889 362.273333,26.7788889 C381.978889,26.7788889 365.81,0 365.81,0 M0,394.61 C13.1366667,394.61 24.2522222,410.778889 40.4211111,435.031111 C56.5888889,459.284444 78.8211111,480 86.4,480 M1034.27333,480 C1034.27333,480 1053.47333,459.284444 1053.47333,445.136667 C1053.47333,435.031111 1040.33667,424.926667 1022.14778,424.926667 C993.347778,424.926667 977.684444,443.115556 920.588889,443.115556 C897.347778,443.115556 895.823333,439.073333 872.084444,439.073333 C825.6,439.073333 794.778889,480 794.778889,480 M1440,26.7788889 C1430.4,26.7788889 1387.2,116.968889 1356.63111,147.536667 C1326.06333,178.105556 1278.31556,195.536667 1250.52667,195.536667 C1237.38889,195.536667 1239.91556,200.084444 1239.91556,203.621111 C1239.91556,207.157778 1286.90556,216.757778 1332.37889,216.757778 C1377.85222,216.757778 1440,164.21 1440,164.21 M656.842222,167.242222 C656.842222,169.263333 657.852222,171.79 663.915556,171.79 C669.978889,171.79 729.6,153.6 771.536667,153.6 C789.221111,153.6 800.336667,156.631111 806.905556,156.631111 C813.473333,156.631111 825.094444,155.115556 825.094444,147.031111 C825.094444,136.421111 779.621111,119.747778 745.263333,119.747778 C711.41,119.747778 656.842222,161.178889 656.842222,167.242222 L656.842222,167.242222 L656.842222,167.242222 L656.842222,167.242222 L656.842222,167.242222 L656.842222,167.242222 L656.842222,167.242222 L656.842222,167.242222 L656.842222,167.242222 L656.842222,167.242222 L656.842222,167.242222 L656.842222,167.242222 L656.842222,167.242222 L656.842222,167.242222 L656.842222,167.242222 L656.842222,167.242222 L656.842222,167.242222 L656.842222,167.242222 L656.842222,167.242222 L656.842222,167.242222 L656.842222,167.242222 L656.842222,167.242222 L656.842222,167.242222 L656.842222,167.242222 L656.842222,167.242222 L656.842222,167.242222 L656.842222,167.242222 L656.842222,167.242222 L656.842222,167.242222 L656.842222,167.242222 L656.842222,167.242222 L656.842222,167.242222 L656.842222,167.242222 Z M236.967778,0 C236.967778,0 315.284444,39.9155556 358.736667,39.9155556 C394.105556,39.9155556 396.126667,11.6211111 396.126667,7.57888889 C396.126667,3.53666667 394.61,0 394.61,0 M0,382.484444 C64.6733333,382.484444 69.2211111,463.326667 136.926667,463.326667 C188.463333,463.326667 222.821111,480 222.821111,480 M1412.21,0 C1403.62111,0 1366.98889,94.2311111 1332.88444,128.336667 C1298.77889,162.442222 1255.07333,180.884444 1227.78889,180.884444 C1200.50556,180.884444 1160.08444,174.821111 1118.14778,174.821111 C1076.21,174.821111 1052.96778,175.831111 1052.96778,180.884444 C1052.96778,188.26 1103.63556,203.022222 1156.52222,206.274444 C1220.21,210.19 1276.69889,227.368889 1306.10556,227.368889 C1374.82111,227.368889 1432.42111,188.968889 1440,188.968889 M559.831111,242.526667 C589.136667,242.526667 619.001111,165.726667 854.4,165.726667 C894.821111,165.726667 914.021111,168.757778 931.705556,168.757778 C949.388889,168.757778 965.557778,162.694444 965.557778,157.642222 C965.557778,152.59 953.081111,148.722222 934.736667,145.768889 C904.926667,140.968889 846.821111,110.147778 751.831111,110.147778 C708.378889,110.147778 685.99,134.563333 664.926667,142.99 C627.031111,158.147778 555.284444,198.063333 555.284444,236.463333 C555.284444,241.515556 556.528889,242.526667 559.831111,242.526667 L559.831111,242.526667 L559.831111,242.526667 L559.831111,242.526667 L559.831111,242.526667 L559.831111,242.526667 L559.831111,242.526667 L559.831111,242.526667 L559.831111,242.526667 L559.831111,242.526667 L559.831111,242.526667 L559.831111,242.526667 L559.831111,242.526667 L559.831111,242.526667 L559.831111,242.526667 L559.831111,242.526667 L559.831111,242.526667 L559.831111,242.526667 L559.831111,242.526667 L559.831111,242.526667 L559.831111,242.526667 L559.831111,242.526667 L559.831111,242.526667 L559.831111,242.526667 L559.831111,242.526667 L559.831111,242.526667 L559.831111,242.526667 L559.831111,242.526667 L559.831111,242.526667 L559.831111,242.526667 L559.831111,242.526667 L559.831111,242.526667 L559.831111,242.526667 Z M124.8,0 C124.8,7.07333333 200.084444,53.5577778 343.073333,53.5577778 C423.41,53.5577778 428.463333,0 428.463333,0 M254.147778,480 C226.863333,452.715556 126.821111,449.178889 86.4,408.757778 C66.9477778,389.305556 48.5055556,369.347778 26.7788889,369.347778 C8.08444444,369.347778 0,372.378889 0,372.378889 M1077.22111,480 C1077.22111,480 1084.29444,466.863333 1084.29444,452.463333 C1084.29444,438.063333 1058.02111,407.242222 1030.23111,407.242222 C1008.50556,407.242222 981.221111,421.894444 949.388889,421.894444 C938.795556,421.894444 927.663333,419.873333 860.967778,419.873333 C802.357778,419.873333 755.367778,480 755.367778,480 M14.6522222,0 C14.6522222,26.7788889 104.588889,72.2522222 280.926667,72.2522222 C445.136667,72.2522222 466.863333,0 466.863333,0 M291.031111,480 C291.031111,463.831111 185.936667,437.305556 145.515556,403.705556 C104.312222,369.455556 63.1577778,355.2 35.8733333,355.2 C8.58888889,355.2 0,358.736667 0,358.736667 M1163.62111,480 C1163.62111,480 1167.15778,473.936667 1167.15778,463.831111 C1167.15778,422.905556 1101.47333,385.515556 1061.55778,385.515556 C1005.97889,385.515556 966.567778,381.473333 924.126667,381.473333 C881.684444,381.473333 826.777778,404.477778 794.778889,413.81 C770.526667,420.884444 711.915556,469.894444 711.915556,480 M1339.86,0 C1339.86,31.8311111 1278.82111,138.608889 1184.16667,138.608889 C1089.85222,138.608889 1065.09444,161.684444 1021.64222,161.684444 C989.81,161.684444 973.257778,141.553333 938.617778,130.784444 C902.896667,119.68 809.302222,99.0311111 773.557778,99.0311111 C736.616667,99.0311111 698.986667,112.483333 662.4,126.821111 C588.894444,155.626667 525.978889,199.373333 525.978889,224.336667 C525.978889,261.726667 518.4,269.81 518.4,277.894444 C518.4,285.978889 524.463333,291.536667 530.526667,291.536667 C536.588889,291.536667 580.547778,268.8 609.347778,242.526667 C638.147778,216.252222 739.2,183.915556 831.663333,183.915556 C870.513333,183.915556 919.075556,186.947778 970.106667,186.947778 C1037.30556,186.947778 1120.67333,235.452222 1266.18889,235.452222 C1415.24222,235.452222 1440,213.221111 1440,213.221111 M333.473333,480 C333.473333,471.915556 288,453.726667 260.715556,428.463333 C233.431111,403.2 136.926667,338.021111 39.9155556,338.021111 C9.09444444,338.021111 0,345.094444 0,345.094444 M1241.93667,480 C1241.93667,407.747778 1111.57889,358.231111 1084.29444,358.231111 C1038.31556,358.231111 1029.72667,363.284444 1004.96778,363.284444 C980.21,363.284444 955.957778,350.652222 895.831111,350.652222 C835.705556,350.652222 795.547778,389.716667 764.373333,401.183333 C720.415556,417.352222 673.515556,443.621111 673.515556,480 M1276.29444,0 C1276.29444,80.3366667 1079.24222,132.378889 1037.30556,132.378889 C995.367778,132.378889 961.01,107.115556 926.652222,107.115556 C892.294444,107.115556 813.978889,87.41 775.073333,87.41 C736.168889,87.41 656.842222,99.0311111 605.305556,135.41 C557.436667,169.2 493.642222,171.79 477.473333,252.126667 C470.196667,288.282222 463.831111,288 463.831111,297.6 C463.831111,307.2 477.473333,312.757778 498.188889,312.757778 C578.021111,312.757778 631.578889,202.61 918.567778,202.61 C1069.13667,202.61 1138.86333,248.59 1282.35778,248.59 C1350.56889,248.59 1361.17889,242.526667 1388.96778,242.526667 C1434.94778,242.526667 1440,244.547778 1440,244.547778 M0,61.1366667 C0,61.1366667 31.8311111,96 249.6,96 C445.642222,96 454.231111,8.08444444 521.936667,8.08444444 C557.81,8.08444444 602.778889,24.2522222 650.273333,24.2522222 C697.768889,24.2522222 720,0 720,0 M1322.77889,480 C1322.77889,474.947778 1285.89444,404.21 1223.24222,390.568889 C1175.28222,380.125556 1138.35778,324.884444 1078.23111,324.884444 C1030.73667,324.884444 1014.56778,337.515556 951.915556,337.515556 C889.263333,337.515556 890.273333,320.336667 841.263333,320.336667 C796.8,320.336667 794.315556,390.042222 693.221111,409.768889 C651.788889,417.852222 634.105556,437.052222 634.105556,459.79 C634.105556,470.4 621.978889,480 621.978889,480 M1202.02111,0 C1202.02111,43.4522222 1086.31556,96 1025.17889,96 C964.042222,96 881.178889,79.8311111 737.684444,79.8311111 C665.936667,79.8311111 565.388889,134.905556 527.494444,151.578889 C489.6,168.252222 441.6,247.578889 419.368889,270.315556 C397.136667,293.052222 381.473333,297.6 381.473333,310.231111 C381.473333,318.821111 391.073333,327.915556 453.726667,327.915556 C642.188889,327.915556 543.663333,231.915556 944.842222,231.915556 C1058.52667,231.915556 1207.07333,259.705556 1260.12667,259.705556 C1313.17889,259.705556 1328.84222,257.684444 1368.25222,257.684444 C1407.66333,257.684444 1440,273.852222 1440,273.852222 M0,122.778889 C0,122.778889 9.09444444,129.852222 72.2522222,129.852222 C493.136667,129.852222 402.678889,36.1266667 527.494444,36.1266667 C565.387778,36.1266667 576.786667,44.4633333 604.294444,44.4633333 C754.357778,44.4633333 771.284444,22.99 794.273333,0 M391.073333,480 C391.073333,480 327.915556,398.652222 229.894444,359.242222 C180.202222,339.262222 118.835556,324.378889 73.2633333,324.378889 C22.2311111,324.378889 0,328.926667 0,328.926667 M1121.20444,0 C1121.20444,0 1068.40778,69.78 976.421111,69.78 C884.434444,69.78 832.966667,65.9366667 755.665556,65.9366667 C678.363333,65.9366667 632.386667,94.79 566.453333,110.147778 C500.52,125.504444 486.12,147.082222 423.217778,209.984444 C360.316667,272.886667 309.54,273.644444 309.54,303.957778 C309.54,329.725556 391.073333,338.021111 441.406667,338.021111 C653.606667,338.021111 711.915556,278.948889 772.595556,278.948889 C808.928889,278.948889 837.765556,280.464444 865.806667,280.464444 C919.831111,280.464444 1008.28333,264.55 1121.20444,264.55 C1161.37111,264.55 1206.08444,277.433333 1288.69111,277.433333 C1371.29778,277.433333 1440,312.757778 1440,312.757778 M0,169.817778 C0,169.817778 143.743333,166.582222 276.631111,139.503333 C429.114444,108.431111 438.628889,75.8433333 490.163333,75.8433333 C535.381111,75.8433333 545.233333,78.8744444 571.757778,78.8744444 C598.283333,78.8744444 681.305556,52.0422222 740.967778,52.0422222 C817.303333,52.0422222 858.227778,0 858.227778,0 M1372.29444,480 C1372.29444,456.757778 1318.17889,375.847778 1256.08444,371.873333 C1192.92667,367.831111 1166.65222,327.41 1140.88444,323.368889 C1115.11556,319.326667 1113.6,294.063333 1058.52667,294.063333 C1003.45222,294.063333 965.557778,303.157778 924.126667,303.157778 C888.338889,303.157778 874.105556,299.115556 835.705556,299.115556 C755.367778,299.115556 743.242222,381.473333 678.063333,397.136667 C613.953333,412.543333 614.905556,466.863333 523.452222,466.863333 C411.284444,466.863333 297.6,310.231111 76.8,310.231111 C34.8633333,310.231111 0,319.831111 0,319.831111 M0,309.263333 C0,309.263333 48.0788889,298.653333 107.95,298.653333 C303.663333,298.653333 412.126667,430.736667 570.778889,430.736667 C603.452222,430.736667 633.097778,395.144444 671.831111,381.473333 C686.724444,376.217778 702.027778,362.113333 714.738889,349.643333 C726.465556,338.138889 736.213333,328.177778 736.213333,324.378889 C736.213333,320.631111 734.738889,316.442222 726.761111,316.442222 C708.21,316.442222 706.183333,347.914444 463.831111,347.914444 C297.263333,347.914444 245.122222,301.642222 245.122222,269.096667 C245.122222,238.315556 359.558889,232.466667 406.545556,201.394444 C453.532222,170.323333 466.416667,137.23 477.784444,125.104444 C489.152222,112.978889 495.972222,109.946667 495.972222,105.4 C495.972222,100.852222 493.978889,99.0844444 487.383333,99.0844444 C446.821111,99.0844444 182.4,219.836667 0,219.836667 M910.736667,0 C910.736667,6.68444444 892.213333,20.7511111 874.77,29.6077778 C859.251111,37.4877778 845.092222,38.4 845.092222,44.2655556 C845.092222,50.3288889 856.45,55.3811111 874.77,55.3811111 C1000.42111,55.3811111 1048.45,0 1048.45,0 L910.736667,0 L910.736667,0 L910.736667,0 L910.736667,0 L910.736667,0 L910.736667,0 L910.736667,0 L910.736667,0 L910.736667,0 L910.736667,0 L910.736667,0 L910.736667,0 L910.736667,0 L910.736667,0 L910.736667,0 L910.736667,0 L910.736667,0 L910.736667,0 L910.736667,0 L910.736667,0 L910.736667,0 L910.736667,0 L910.736667,0 L910.736667,0 L910.736667,0 L910.736667,0 L910.736667,0 L910.736667,0 L910.736667,0 L910.736667,0 L910.736667,0 L910.736667,0 Z M1440,356.25 C1440,356.25 1334.92,290.526667 1265.19778,290.526667 C1195.47444,290.526667 1179.55889,285.77 1156.82333,285.77 C1134.08778,285.77 1131.30889,286.821111 1131.30889,291.074444 C1131.30889,296.926667 1140.90889,304.463333 1156.06556,304.463333 C1190.92778,304.463333 1211.97111,354.734444 1239.72111,354.734444 C1267.47111,354.734444 1270.50222,350.652222 1282.62778,350.652222 C1306.02,350.652222 1347.80333,381.473333 1367.50778,407.242222 C1392.95333,440.518889 1406.86556,476.917778 1409.94778,480 M631.073333,384.631111 C614.905556,393.094444 613.893333,409.768889 563.873333,409.768889 C505.515556,409.768889 401.431111,373.894444 401.431111,359.494444 C401.431111,357.221111 402.694444,356.715556 406.231111,356.715556 C409.767778,356.715556 432.757778,363.79 518.4,363.79 C547.705556,363.79 555.031111,368.842222 579.284444,368.842222 C603.536667,368.842222 620.715556,361.263333 633.347778,361.263333 C645.978889,361.263333 654.315556,362.021111 654.315556,367.073333 C654.315556,372.631111 647.242222,376.168889 631.073333,384.631111 L631.073333,384.631111 L631.073333,384.631111 L631.073333,384.631111 L631.073333,384.631111 L631.073333,384.631111 L631.073333,384.631111 L631.073333,384.631111 L631.073333,384.631111 L631.073333,384.631111 L631.073333,384.631111 L631.073333,384.631111 L631.073333,384.631111 L631.073333,384.631111 L631.073333,384.631111 L631.073333,384.631111 L631.073333,384.631111 L631.073333,384.631111 L631.073333,384.631111 L631.073333,384.631111 L631.073333,384.631111 L631.073333,384.631111 L631.073333,384.631111 L631.073333,384.631111 L631.073333,384.631111 L631.073333,384.631111 L631.073333,384.631111 L631.073333,384.631111 L631.073333,384.631111 L631.073333,384.631111 L631.073333,384.631111 L631.073333,384.631111 L631.073333,384.631111 Z M1440,460.631111 C1434.10556,460.631111 1345.76778,323.536667 1283.2,323.536667 C1262.31556,323.536667 1265.68444,338.021111 1239.72111,338.021111 C1224.87333,338.021111 1203.36889,311.242222 1203.36889,306.694444 C1203.36889,302.905556 1208.42111,300.631111 1217.17889,300.631111 C1225.93667,300.631111 1229.64222,303.663333 1269.72667,303.663333 C1324.29444,303.663333 1440,397.305556 1440,397.305556 M997.894444,0 C997.894444,6.06333333 953.936667,38.4 917.052222,39.2422222 C910.317778,39.3955556 905.431111,37.8944444 905.431111,32.8422222 C905.431111,27.79 911.31,26.4188889 918.063333,23.5788889 C934.484444,16.6733333 947.655556,0 947.655556,0 L997.894444,0 L997.894444,0 L997.894444,0 L997.894444,0 L997.894444,0 L997.894444,0 L997.894444,0 L997.894444,0 L997.894444,0 L997.894444,0 L997.894444,0 L997.894444,0 L997.894444,0 L997.894444,0 L997.894444,0 L997.894444,0 L997.894444,0 L997.894444,0 L997.894444,0 L997.894444,0 L997.894444,0 L997.894444,0 L997.894444,0 L997.894444,0 L997.894444,0 L997.894444,0 L997.894444,0 L997.894444,0 L997.894444,0 L997.894444,0 L997.894444,0 L997.894444,0 Z M0,251.666667 C52.8611111,251.666667 92.4633333,230.905556 243.536667,202.105556 C341.827778,183.367778 429.861111,133.557778 431.663333,133.557778 C435.368889,133.557778 440.084444,134.568889 440.084444,138.273333 C440.084444,163.957778 402.68,200.4 319.157778,206.99 C227.367778,214.231111 202.947778,237.473333 202.947778,252.463333 C202.947778,268.294444 208.673333,266.778889 208.673333,277.39 C208.673333,284.463333 206.126667,288.505556 199.578889,288.505556 C185.094444,288.505556 173.305556,279.322222 140.822222,279.322222 C98.0211111,279.322222 87.7477778,270.315556 49.3477778,270.315556 C10.9477778,270.315556 0,294.063333 0,294.063333" id="Page-1" stroke="#178BCB" stroke-width="0.1" stroke-dasharray="40,10,100,10"></path>
                <path d="M1003.95778,480 C1003.95778,480 1022.65222,461.81 1022.65222,449.178889 C1022.65222,444.126667 1018.61,439.073333 1012.54778,439.073333 C1006.48444,439.073333 964.547778,463.326667 930.694444,463.326667 C896.842222,463.326667 889.263333,459.433333 873.6,459.433333 C852.378889,459.433333 828.126667,476.968889 828.126667,480 M1440,92.9688889 C1426.35778,92.9688889 1395.53667,135.41 1379.36778,151.578889 C1331.87333,199.073333 1315.70556,194.526667 1315.70556,203.621111 C1315.70556,207.157778 1320.75778,209.178889 1330.86333,209.178889 C1342.48444,209.178889 1395.53667,188.968889 1415.24222,169.263333 C1430.14667,154.357778 1436.46333,137.936667 1440,137.936667 M302.652222,0 C302.652222,4.04222222 337.352222,26.7788889 362.273333,26.7788889 C381.978889,26.7788889 365.81,0 365.81,0 M0,394.61 C13.1366667,394.61 24.2522222,410.778889 40.4211111,435.031111 C56.5888889,459.284444 78.8211111,480 86.4,480 M1034.27333,480 C1034.27333,480 1053.47333,459.284444 1053.47333,445.136667 C1053.47333,435.031111 1040.33667,424.926667 1022.14778,424.926667 C993.347778,424.926667 977.684444,443.115556 920.588889,443.115556 C897.347778,443.115556 895.823333,439.073333 872.084444,439.073333 C825.6,439.073333 794.778889,480 794.778889,480 M1440,26.7788889 C1430.4,26.7788889 1387.2,116.968889 1356.63111,147.536667 C1326.06333,178.105556 1278.31556,195.536667 1250.52667,195.536667 C1237.38889,195.536667 1239.91556,200.084444 1239.91556,203.621111 C1239.91556,207.157778 1286.90556,216.757778 1332.37889,216.757778 C1377.85222,216.757778 1440,164.21 1440,164.21 M656.842222,167.242222 C656.842222,169.263333 657.852222,171.79 663.915556,171.79 C669.978889,171.79 729.6,153.6 771.536667,153.6 C789.221111,153.6 800.336667,156.631111 806.905556,156.631111 C813.473333,156.631111 825.094444,155.115556 825.094444,147.031111 C825.094444,136.421111 779.621111,119.747778 745.263333,119.747778 C711.41,119.747778 656.842222,161.178889 656.842222,167.242222 L656.842222,167.242222 L656.842222,167.242222 L656.842222,167.242222 L656.842222,167.242222 L656.842222,167.242222 L656.842222,167.242222 L656.842222,167.242222 L656.842222,167.242222 L656.842222,167.242222 L656.842222,167.242222 L656.842222,167.242222 L656.842222,167.242222 L656.842222,167.242222 L656.842222,167.242222 L656.842222,167.242222 L656.842222,167.242222 L656.842222,167.242222 L656.842222,167.242222 L656.842222,167.242222 L656.842222,167.242222 L656.842222,167.242222 L656.842222,167.242222 L656.842222,167.242222 L656.842222,167.242222 L656.842222,167.242222 L656.842222,167.242222 L656.842222,167.242222 L656.842222,167.242222 L656.842222,167.242222 L656.842222,167.242222 L656.842222,167.242222 L656.842222,167.242222 Z M236.967778,0 C236.967778,0 315.284444,39.9155556 358.736667,39.9155556 C394.105556,39.9155556 396.126667,11.6211111 396.126667,7.57888889 C396.126667,3.53666667 394.61,0 394.61,0 M0,382.484444 C64.6733333,382.484444 69.2211111,463.326667 136.926667,463.326667 C188.463333,463.326667 222.821111,480 222.821111,480 M1412.21,0 C1403.62111,0 1366.98889,94.2311111 1332.88444,128.336667 C1298.77889,162.442222 1255.07333,180.884444 1227.78889,180.884444 C1200.50556,180.884444 1160.08444,174.821111 1118.14778,174.821111 C1076.21,174.821111 1052.96778,175.831111 1052.96778,180.884444 C1052.96778,188.26 1103.63556,203.022222 1156.52222,206.274444 C1220.21,210.19 1276.69889,227.368889 1306.10556,227.368889 C1374.82111,227.368889 1432.42111,188.968889 1440,188.968889 M559.831111,242.526667 C589.136667,242.526667 619.001111,165.726667 854.4,165.726667 C894.821111,165.726667 914.021111,168.757778 931.705556,168.757778 C949.388889,168.757778 965.557778,162.694444 965.557778,157.642222 C965.557778,152.59 953.081111,148.722222 934.736667,145.768889 C904.926667,140.968889 846.821111,110.147778 751.831111,110.147778 C708.378889,110.147778 685.99,134.563333 664.926667,142.99 C627.031111,158.147778 555.284444,198.063333 555.284444,236.463333 C555.284444,241.515556 556.528889,242.526667 559.831111,242.526667 L559.831111,242.526667 L559.831111,242.526667 L559.831111,242.526667 L559.831111,242.526667 L559.831111,242.526667 L559.831111,242.526667 L559.831111,242.526667 L559.831111,242.526667 L559.831111,242.526667 L559.831111,242.526667 L559.831111,242.526667 L559.831111,242.526667 L559.831111,242.526667 L559.831111,242.526667 L559.831111,242.526667 L559.831111,242.526667 L559.831111,242.526667 L559.831111,242.526667 L559.831111,242.526667 L559.831111,242.526667 L559.831111,242.526667 L559.831111,242.526667 L559.831111,242.526667 L559.831111,242.526667 L559.831111,242.526667 L559.831111,242.526667 L559.831111,242.526667 L559.831111,242.526667 L559.831111,242.526667 L559.831111,242.526667 L559.831111,242.526667 L559.831111,242.526667 Z M124.8,0 C124.8,7.07333333 200.084444,53.5577778 343.073333,53.5577778 C423.41,53.5577778 428.463333,0 428.463333,0 M254.147778,480 C226.863333,452.715556 126.821111,449.178889 86.4,408.757778 C66.9477778,389.305556 48.5055556,369.347778 26.7788889,369.347778 C8.08444444,369.347778 0,372.378889 0,372.378889 M1077.22111,480 C1077.22111,480 1084.29444,466.863333 1084.29444,452.463333 C1084.29444,438.063333 1058.02111,407.242222 1030.23111,407.242222 C1008.50556,407.242222 981.221111,421.894444 949.388889,421.894444 C938.795556,421.894444 927.663333,419.873333 860.967778,419.873333 C802.357778,419.873333 755.367778,480 755.367778,480 M14.6522222,0 C14.6522222,26.7788889 104.588889,72.2522222 280.926667,72.2522222 C445.136667,72.2522222 466.863333,0 466.863333,0 M291.031111,480 C291.031111,463.831111 185.936667,437.305556 145.515556,403.705556 C104.312222,369.455556 63.1577778,355.2 35.8733333,355.2 C8.58888889,355.2 0,358.736667 0,358.736667 M1163.62111,480 C1163.62111,480 1167.15778,473.936667 1167.15778,463.831111 C1167.15778,422.905556 1101.47333,385.515556 1061.55778,385.515556 C1005.97889,385.515556 966.567778,381.473333 924.126667,381.473333 C881.684444,381.473333 826.777778,404.477778 794.778889,413.81 C770.526667,420.884444 711.915556,469.894444 711.915556,480 M1339.86,0 C1339.86,31.8311111 1278.82111,138.608889 1184.16667,138.608889 C1089.85222,138.608889 1065.09444,161.684444 1021.64222,161.684444 C989.81,161.684444 973.257778,141.553333 938.617778,130.784444 C902.896667,119.68 809.302222,99.0311111 773.557778,99.0311111 C736.616667,99.0311111 698.986667,112.483333 662.4,126.821111 C588.894444,155.626667 525.978889,199.373333 525.978889,224.336667 C525.978889,261.726667 518.4,269.81 518.4,277.894444 C518.4,285.978889 524.463333,291.536667 530.526667,291.536667 C536.588889,291.536667 580.547778,268.8 609.347778,242.526667 C638.147778,216.252222 739.2,183.915556 831.663333,183.915556 C870.513333,183.915556 919.075556,186.947778 970.106667,186.947778 C1037.30556,186.947778 1120.67333,235.452222 1266.18889,235.452222 C1415.24222,235.452222 1440,213.221111 1440,213.221111 M333.473333,480 C333.473333,471.915556 288,453.726667 260.715556,428.463333 C233.431111,403.2 136.926667,338.021111 39.9155556,338.021111 C9.09444444,338.021111 0,345.094444 0,345.094444 M1241.93667,480 C1241.93667,407.747778 1111.57889,358.231111 1084.29444,358.231111 C1038.31556,358.231111 1029.72667,363.284444 1004.96778,363.284444 C980.21,363.284444 955.957778,350.652222 895.831111,350.652222 C835.705556,350.652222 795.547778,389.716667 764.373333,401.183333 C720.415556,417.352222 673.515556,443.621111 673.515556,480 M1276.29444,0 C1276.29444,80.3366667 1079.24222,132.378889 1037.30556,132.378889 C995.367778,132.378889 961.01,107.115556 926.652222,107.115556 C892.294444,107.115556 813.978889,87.41 775.073333,87.41 C736.168889,87.41 656.842222,99.0311111 605.305556,135.41 C557.436667,169.2 493.642222,171.79 477.473333,252.126667 C470.196667,288.282222 463.831111,288 463.831111,297.6 C463.831111,307.2 477.473333,312.757778 498.188889,312.757778 C578.021111,312.757778 631.578889,202.61 918.567778,202.61 C1069.13667,202.61 1138.86333,248.59 1282.35778,248.59 C1350.56889,248.59 1361.17889,242.526667 1388.96778,242.526667 C1434.94778,242.526667 1440,244.547778 1440,244.547778 M0,61.1366667 C0,61.1366667 31.8311111,96 249.6,96 C445.642222,96 454.231111,8.08444444 521.936667,8.08444444 C557.81,8.08444444 602.778889,24.2522222 650.273333,24.2522222 C697.768889,24.2522222 720,0 720,0 M1322.77889,480 C1322.77889,474.947778 1285.89444,404.21 1223.24222,390.568889 C1175.28222,380.125556 1138.35778,324.884444 1078.23111,324.884444 C1030.73667,324.884444 1014.56778,337.515556 951.915556,337.515556 C889.263333,337.515556 890.273333,320.336667 841.263333,320.336667 C796.8,320.336667 794.315556,390.042222 693.221111,409.768889 C651.788889,417.852222 634.105556,437.052222 634.105556,459.79 C634.105556,470.4 621.978889,480 621.978889,480 M1202.02111,0 C1202.02111,43.4522222 1086.31556,96 1025.17889,96 C964.042222,96 881.178889,79.8311111 737.684444,79.8311111 C665.936667,79.8311111 565.388889,134.905556 527.494444,151.578889 C489.6,168.252222 441.6,247.578889 419.368889,270.315556 C397.136667,293.052222 381.473333,297.6 381.473333,310.231111 C381.473333,318.821111 391.073333,327.915556 453.726667,327.915556 C642.188889,327.915556 543.663333,231.915556 944.842222,231.915556 C1058.52667,231.915556 1207.07333,259.705556 1260.12667,259.705556 C1313.17889,259.705556 1328.84222,257.684444 1368.25222,257.684444 C1407.66333,257.684444 1440,273.852222 1440,273.852222 M0,122.778889 C0,122.778889 9.09444444,129.852222 72.2522222,129.852222 C493.136667,129.852222 402.678889,36.1266667 527.494444,36.1266667 C565.387778,36.1266667 576.786667,44.4633333 604.294444,44.4633333 C754.357778,44.4633333 771.284444,22.99 794.273333,0 M391.073333,480 C391.073333,480 327.915556,398.652222 229.894444,359.242222 C180.202222,339.262222 118.835556,324.378889 73.2633333,324.378889 C22.2311111,324.378889 0,328.926667 0,328.926667 M1121.20444,0 C1121.20444,0 1068.40778,69.78 976.421111,69.78 C884.434444,69.78 832.966667,65.9366667 755.665556,65.9366667 C678.363333,65.9366667 632.386667,94.79 566.453333,110.147778 C500.52,125.504444 486.12,147.082222 423.217778,209.984444 C360.316667,272.886667 309.54,273.644444 309.54,303.957778 C309.54,329.725556 391.073333,338.021111 441.406667,338.021111 C653.606667,338.021111 711.915556,278.948889 772.595556,278.948889 C808.928889,278.948889 837.765556,280.464444 865.806667,280.464444 C919.831111,280.464444 1008.28333,264.55 1121.20444,264.55 C1161.37111,264.55 1206.08444,277.433333 1288.69111,277.433333 C1371.29778,277.433333 1440,312.757778 1440,312.757778 M0,169.817778 C0,169.817778 143.743333,166.582222 276.631111,139.503333 C429.114444,108.431111 438.628889,75.8433333 490.163333,75.8433333 C535.381111,75.8433333 545.233333,78.8744444 571.757778,78.8744444 C598.283333,78.8744444 681.305556,52.0422222 740.967778,52.0422222 C817.303333,52.0422222 858.227778,0 858.227778,0 M1372.29444,480 C1372.29444,456.757778 1318.17889,375.847778 1256.08444,371.873333 C1192.92667,367.831111 1166.65222,327.41 1140.88444,323.368889 C1115.11556,319.326667 1113.6,294.063333 1058.52667,294.063333 C1003.45222,294.063333 965.557778,303.157778 924.126667,303.157778 C888.338889,303.157778 874.105556,299.115556 835.705556,299.115556 C755.367778,299.115556 743.242222,381.473333 678.063333,397.136667 C613.953333,412.543333 614.905556,466.863333 523.452222,466.863333 C411.284444,466.863333 297.6,310.231111 76.8,310.231111 C34.8633333,310.231111 0,319.831111 0,319.831111 M0,309.263333 C0,309.263333 48.0788889,298.653333 107.95,298.653333 C303.663333,298.653333 412.126667,430.736667 570.778889,430.736667 C603.452222,430.736667 633.097778,395.144444 671.831111,381.473333 C686.724444,376.217778 702.027778,362.113333 714.738889,349.643333 C726.465556,338.138889 736.213333,328.177778 736.213333,324.378889 C736.213333,320.631111 734.738889,316.442222 726.761111,316.442222 C708.21,316.442222 706.183333,347.914444 463.831111,347.914444 C297.263333,347.914444 245.122222,301.642222 245.122222,269.096667 C245.122222,238.315556 359.558889,232.466667 406.545556,201.394444 C453.532222,170.323333 466.416667,137.23 477.784444,125.104444 C489.152222,112.978889 495.972222,109.946667 495.972222,105.4 C495.972222,100.852222 493.978889,99.0844444 487.383333,99.0844444 C446.821111,99.0844444 182.4,219.836667 0,219.836667 M910.736667,0 C910.736667,6.68444444 892.213333,20.7511111 874.77,29.6077778 C859.251111,37.4877778 845.092222,38.4 845.092222,44.2655556 C845.092222,50.3288889 856.45,55.3811111 874.77,55.3811111 C1000.42111,55.3811111 1048.45,0 1048.45,0 L910.736667,0 L910.736667,0 L910.736667,0 L910.736667,0 L910.736667,0 L910.736667,0 L910.736667,0 L910.736667,0 L910.736667,0 L910.736667,0 L910.736667,0 L910.736667,0 L910.736667,0 L910.736667,0 L910.736667,0 L910.736667,0 L910.736667,0 L910.736667,0 L910.736667,0 L910.736667,0 L910.736667,0 L910.736667,0 L910.736667,0 L910.736667,0 L910.736667,0 L910.736667,0 L910.736667,0 L910.736667,0 L910.736667,0 L910.736667,0 L910.736667,0 L910.736667,0 Z M1440,356.25 C1440,356.25 1334.92,290.526667 1265.19778,290.526667 C1195.47444,290.526667 1179.55889,285.77 1156.82333,285.77 C1134.08778,285.77 1131.30889,286.821111 1131.30889,291.074444 C1131.30889,296.926667 1140.90889,304.463333 1156.06556,304.463333 C1190.92778,304.463333 1211.97111,354.734444 1239.72111,354.734444 C1267.47111,354.734444 1270.50222,350.652222 1282.62778,350.652222 C1306.02,350.652222 1347.80333,381.473333 1367.50778,407.242222 C1392.95333,440.518889 1406.86556,476.917778 1409.94778,480 M631.073333,384.631111 C614.905556,393.094444 613.893333,409.768889 563.873333,409.768889 C505.515556,409.768889 401.431111,373.894444 401.431111,359.494444 C401.431111,357.221111 402.694444,356.715556 406.231111,356.715556 C409.767778,356.715556 432.757778,363.79 518.4,363.79 C547.705556,363.79 555.031111,368.842222 579.284444,368.842222 C603.536667,368.842222 620.715556,361.263333 633.347778,361.263333 C645.978889,361.263333 654.315556,362.021111 654.315556,367.073333 C654.315556,372.631111 647.242222,376.168889 631.073333,384.631111 L631.073333,384.631111 L631.073333,384.631111 L631.073333,384.631111 L631.073333,384.631111 L631.073333,384.631111 L631.073333,384.631111 L631.073333,384.631111 L631.073333,384.631111 L631.073333,384.631111 L631.073333,384.631111 L631.073333,384.631111 L631.073333,384.631111 L631.073333,384.631111 L631.073333,384.631111 L631.073333,384.631111 L631.073333,384.631111 L631.073333,384.631111 L631.073333,384.631111 L631.073333,384.631111 L631.073333,384.631111 L631.073333,384.631111 L631.073333,384.631111 L631.073333,384.631111 L631.073333,384.631111 L631.073333,384.631111 L631.073333,384.631111 L631.073333,384.631111 L631.073333,384.631111 L631.073333,384.631111 L631.073333,384.631111 L631.073333,384.631111 L631.073333,384.631111 Z M1440,460.631111 C1434.10556,460.631111 1345.76778,323.536667 1283.2,323.536667 C1262.31556,323.536667 1265.68444,338.021111 1239.72111,338.021111 C1224.87333,338.021111 1203.36889,311.242222 1203.36889,306.694444 C1203.36889,302.905556 1208.42111,300.631111 1217.17889,300.631111 C1225.93667,300.631111 1229.64222,303.663333 1269.72667,303.663333 C1324.29444,303.663333 1440,397.305556 1440,397.305556 M997.894444,0 C997.894444,6.06333333 953.936667,38.4 917.052222,39.2422222 C910.317778,39.3955556 905.431111,37.8944444 905.431111,32.8422222 C905.431111,27.79 911.31,26.4188889 918.063333,23.5788889 C934.484444,16.6733333 947.655556,0 947.655556,0 L997.894444,0 L997.894444,0 L997.894444,0 L997.894444,0 L997.894444,0 L997.894444,0 L997.894444,0 L997.894444,0 L997.894444,0 L997.894444,0 L997.894444,0 L997.894444,0 L997.894444,0 L997.894444,0 L997.894444,0 L997.894444,0 L997.894444,0 L997.894444,0 L997.894444,0 L997.894444,0 L997.894444,0 L997.894444,0 L997.894444,0 L997.894444,0 L997.894444,0 L997.894444,0 L997.894444,0 L997.894444,0 L997.894444,0 L997.894444,0 L997.894444,0 L997.894444,0 Z M0,251.666667 C52.8611111,251.666667 92.4633333,230.905556 243.536667,202.105556 C341.827778,183.367778 429.861111,133.557778 431.663333,133.557778 C435.368889,133.557778 440.084444,134.568889 440.084444,138.273333 C440.084444,163.957778 402.68,200.4 319.157778,206.99 C227.367778,214.231111 202.947778,237.473333 202.947778,252.463333 C202.947778,268.294444 208.673333,266.778889 208.673333,277.39 C208.673333,284.463333 206.126667,288.505556 199.578889,288.505556 C185.094444,288.505556 173.305556,279.322222 140.822222,279.322222 C98.0211111,279.322222 87.7477778,270.315556 49.3477778,270.315556 C10.9477778,270.315556 0,294.063333 0,294.063333" id="Page-1" stroke="#0B9BEB" stroke-width="0.3" stroke-dasharray="1,41,4,114"></path>
            </g>
        </g>
    </g>
</svg>