<svg id="Layer_1" data-name="Layer 1" xmlns="http://www.w3.org/2000/svg" viewBox="0 0 84.5 84.5"><defs><style>.cls-1{fill:none;stroke:#b51825;stroke-linecap:round;stroke-width:0.5px;}</style></defs><title>drop-cap-bg</title><path class="cls-1" d="M0,5.46A37.48,37.48,0,0,0,3.12,0" transform="translate(0.25 0.25)"/><path class="cls-1" d="M0,12A63.8,63.8,0,0,1,4.69,7a37.83,37.83,0,0,0,5.91-7" transform="translate(0.25 0.25)"/><path class="cls-1" d="M0,18.4A69.55,69.55,0,0,1,9.75,7.15C12.48,4.6,15.06,2.25,17.56,0" transform="translate(0.25 0.25)"/><path class="cls-1" d="M36.3,10.64c-1.84-2-12.91,2.53-19.07,8.28S8.56,41.45,9.61,42.58c0.35,0.38,1,.68,2.06-0.34S20.3,27.86,27.83,20.84c3.17-3,5.7-4.26,6.88-5.36S37.71,12.15,36.3,10.64Z" transform="translate(0.25 0.25)"/><path class="cls-1" d="M2.57,84A30.08,30.08,0,0,0,0,79.85" transform="translate(0.25 0.25)"/><path class="cls-1" d="M23.22,0C18.76,3.81,14,8,8.93,12.75A54.14,54.14,0,0,0,0,24.25" transform="translate(0.25 0.25)"/><path class="cls-1" d="M43.87,84c0.58-2,.67-3,0-3.75-0.88-.94-2.51.31-4.77,2.43A11.26,11.26,0,0,0,37.93,84" transform="translate(0.25 0.25)"/><path class="cls-1" d="M39.59,0A101,101,0,0,0,16.74,16c-7.8,7.27-7.58,15.57-9.89,20.67C2.68,45.87-3.26,65.33,3.41,72.48c0.88,0.94,1.28.92,1.87,0.37,5.26-4.91-2.73-24.22,39.53-63.63C49.56,4.8,52.89,2.14,55.52,0" transform="translate(0.25 0.25)"/><path class="cls-1" d="M27.64,0A88.8,88.8,0,0,0,17,7.91,88.71,88.71,0,0,0,0,30.81" transform="translate(0.25 0.25)"/><path class="cls-1" d="M62.46,0c-6.8,6-13.33,11.53-18.56,16.42C27.29,31.9,14.77,54.84,14.17,64.56A75.9,75.9,0,0,1,9.92,84" transform="translate(0.25 0.25)"/><path class="cls-1" d="M33.42,0C27.27,3.79,21.59,7.64,18.71,10.33c-6.63,6.18-11,15-15.13,23.79C2.27,37,1.07,39.82,0,42.65" transform="translate(0.25 0.25)"/><path class="cls-1" d="M68.78,0c-2,1.67-4,3.44-6,5.35C23.44,42,19.67,67.86,13.72,84" transform="translate(0.25 0.25)"/><path class="cls-1" d="M79.81,0c-2.52,2.14-5,4.28-7.25,6.42C21.8,53.75,23.88,68.42,17.7,84" transform="translate(0.25 0.25)"/><path class="cls-1" d="M24.78,84C39.66,64.15,42,51.33,49.81,44c6.52-6.08,12-10.63,17-15.32C71.56,24.26,77.15,17.71,84,10" transform="translate(0.25 0.25)"/><path class="cls-1" d="M47.88,84a30.92,30.92,0,0,1,1.65-4c1.76-3.47,2.06-8.66,2.17-13.12,0.11-4.11.12-7.6-.54-8.3s-1.64-1.23-3.08.1C45.6,61,47.84,65.07,30.85,84" transform="translate(0.25 0.25)"/><path class="cls-1" d="M84,31.27c-5.27,3.15-8.49,3.21-14.67,9-8,7.44,3.69,20.85-11,41.45-0.56.79-1.05,1.55-1.51,2.31" transform="translate(0.25 0.25)"/><path class="cls-1" d="M84,20.43c-0.9.93-1.82,1.84-2.78,2.74-6.42,6-9.68,7.62-16.58,14C50.22,50.66,62.36,68,53.38,81.88c-0.47.72-.87,1.43-1.24,2.12" transform="translate(0.25 0.25)"/><path class="cls-1" d="M84,65.18A48.16,48.16,0,0,0,81.63,84" transform="translate(0.25 0.25)"/><path class="cls-1" d="M64.07,84a60,60,0,0,1,5.5-15.82c3.56-7.26,4-21,14.42-31" transform="translate(0.25 0.25)"/><path class="cls-1" d="M73.33,84c0.43-6.49,1.95-15.19,3.9-18.56S81.38,57.6,84,52.89" transform="translate(0.25 0.25)"/></svg>