<?xml version="1.0" encoding="UTF-8" standalone="no"?>
<svg width="68px" height="48px" viewBox="0 0 68 48" version="1.1" xmlns="http://www.w3.org/2000/svg" xmlns:xlink="http://www.w3.org/1999/xlink">
    <!-- Generator: Sketch 3.8.2 (29753) - http://www.bohemiancoding.com/sketch -->
    <title>jesse-chapo-monogram</title>
    <desc>Created with Sketch.</desc>
    <defs></defs>
    <g id="Welcome" stroke="none" stroke-width="1" fill="none" fill-rule="evenodd">
        <g id="Desktop-HD-Copy-4" transform="translate(-110.000000, -78.000000)">
            <g id="jesse-chapo-monogram" transform="translate(110.000000, 78.000000)">
                <path d="M44.3137546,24.1759162 L44.3390335,25.1057592 C60.2141264,26.7643979 63.9553903,32.3434555 63.9553903,36.0376963 C63.9553903,40.234555 61.0483271,42.5717277 56.3717472,42.5717277 C49.1420074,42.5717277 43.6565056,36.339267 43.6565056,23.2963351 C43.6565056,11.660733 49.2178439,5.27748691 55.5375465,5.27748691 C59.733829,5.27748691 61.8572491,7.61465969 62.8936803,9.80104712 C61.8825279,9.27329843 60.7449814,8.97172775 59.5315985,8.97172775 C55.5628253,8.97172775 52.3271375,12.1884817 52.3271375,16.1340314 C52.3271375,20.0795812 55.5628253,23.2963351 59.5315985,23.2963351 C62.0847584,23.2963351 64.3345725,21.9643979 65.598513,19.9790576 C65.598513,19.9790576 67.064684,18.6973822 67.064684,13.9225131 C67.064684,10.7308901 65.0423792,4.19685864 55.2594796,4.19685864 C39.0052045,4.19685864 35.7442379,16.8376963 35.7442379,16.8376963 L33.2163569,23.2963351 L35.7442379,30.3329843 C35.7442379,30.3329843 38.3226766,43.7780105 56.397026,43.7780105 C60.2394052,43.7780105 67.8988848,42.7225131 67.8988848,36.113089 C67.9241636,30.9109948 61.7561338,25.6335079 44.3137546,24.1759162 Z M30.2587361,10.3790576 L31.194052,9.32356021 L31.194052,8.44397906 C27.2505576,8.46910995 19.8944238,0 12.8921933,0 C7.58364312,0 2.19925651,2.18638743 2.19925651,8.54450262 C2.19925651,14.5256545 8.13977695,20.6073298 19.1866171,23.2460733 L19.1866171,22.2910995 C8.82230483,19.3759162 5.91524164,12.8418848 5.91524164,8.46910995 C5.91524164,5.32774869 7.30557621,1.10575916 12.8163569,1.10575916 C16.7851301,1.10575916 19.8944238,3.69424084 19.8944238,3.69424084 L19.8944238,38.1989529 C19.8944238,41.9685864 16.2795539,46.5675393 10.794052,46.5675393 C6.5472119,46.5675393 1.26394052,42.5717277 1.26394052,36.0125654 C1.26394052,34.7811518 1.74423792,33.7759162 2.37620818,32.9717277 C2.55315985,36.7664921 5.71301115,39.782199 9.58066914,39.782199 C13.5494424,39.782199 16.7851301,36.565445 16.7851301,32.6198953 C16.7851301,28.6743455 13.5494424,25.4575916 9.58066914,25.4575916 C8.0133829,25.4575916 6.5472119,25.9602094 5.35910781,26.8146597 C3.58959108,27.895288 0,30.7099476 0,35.9371728 C0,42.8984293 4.80297398,47.7989529 11.4513011,47.7989529 C21.1330855,47.7989529 31.2446097,39.8827225 31.2446097,39.8827225 L31.2446097,39.0534031 L30.2587361,37.2188482 L30.2587361,10.3790576 L30.2587361,10.3790576 Z" id="Combined-Shape" fill="#FA2D3E"></path>
                <path d="M41.2802974,23.3968586 L40.1174721,28.2722513 L42.797026,35.9623037 L38.6765799,30.2575916 L36.2498141,23.3717277 L38.6765799,16.4858639 L43.0750929,10.8062827 L40.1427509,18.4963351 L41.2802974,23.3968586 Z M26.6438662,29.0010471 L25.2788104,38.4502618 L23.9137546,29.0010471 L21.739777,23.3968586 L23.9137546,17.7675393 L25.2788104,9.32356021 L26.6438662,17.7675393 L28.8178439,23.3968586 L26.6438662,29.0010471 Z" id="Combined-Shape" fill="#B51724"></path>
            </g>
        </g>
    </g>
</svg>