<?xml version="1.0" encoding="UTF-8" standalone="no"?>
<svg width="800px" height="300px" viewBox="0 0 800 300" version="1.1" xmlns="http://www.w3.org/2000/svg" xmlns:xlink="http://www.w3.org/1999/xlink" style="background: #EBEDF7;">
    <!-- Generator: Sketch 3.8.2 (29753) - http://www.bohemiancoding.com/sketch -->
    <title>Artboard 1 Copy</title>
    <desc>Created with Sketch.</desc>
    <defs>
        <rect id="path-1" x="153.8" y="129.597403" width="14.4" height="45.4025974"></rect>
        <mask id="mask-2" maskContentUnits="userSpaceOnUse" maskUnits="objectBoundingBox" x="0" y="0" width="14.4" height="45.4025974" fill="white">
            <use xlink:href="#path-1"></use>
        </mask>
        <rect id="path-3" x="153.8" y="83" width="14.4" height="45.4025974"></rect>
        <mask id="mask-4" maskContentUnits="userSpaceOnUse" maskUnits="objectBoundingBox" x="0" y="0" width="14.4" height="45.4025974" fill="white">
            <use xlink:href="#path-3"></use>
        </mask>
        <rect id="path-5" x="1.8041958" y="19.4673913" width="4.81118881" height="8.36956522"></rect>
        <mask id="mask-6" maskContentUnits="userSpaceOnUse" maskUnits="objectBoundingBox" x="0" y="0" width="4.81118881" height="8.36956522" fill="white">
            <use xlink:href="#path-5"></use>
        </mask>
        <rect id="path-7" x="35.4825175" y="19.4673913" width="4.81118881" height="8.36956522"></rect>
        <mask id="mask-8" maskContentUnits="userSpaceOnUse" maskUnits="objectBoundingBox" x="0" y="0" width="4.81118881" height="8.36956522" fill="white">
            <use xlink:href="#path-7"></use>
        </mask>
        <rect id="path-9" x="70.3636364" y="19.4673913" width="4.81118881" height="8.36956522"></rect>
        <mask id="mask-10" maskContentUnits="userSpaceOnUse" maskUnits="objectBoundingBox" x="0" y="0" width="4.81118881" height="8.36956522" fill="white">
            <use xlink:href="#path-9"></use>
        </mask>
        <rect id="path-11" x="105.244755" y="19.4673913" width="4.81118881" height="8.36956522"></rect>
        <mask id="mask-12" maskContentUnits="userSpaceOnUse" maskUnits="objectBoundingBox" x="0" y="0" width="4.81118881" height="8.36956522" fill="white">
            <use xlink:href="#path-11"></use>
        </mask>
        <rect id="path-13" x="137.72028" y="19.4673913" width="4.81118881" height="8.36956522"></rect>
        <mask id="mask-14" maskContentUnits="userSpaceOnUse" maskUnits="objectBoundingBox" x="0" y="0" width="4.81118881" height="8.36956522" fill="white">
            <use xlink:href="#path-13"></use>
        </mask>
    </defs>
    <g id="Page-1" stroke="none" stroke-width="1" fill="none" fill-rule="evenodd">
        <g id="Artboard-1-Copy">
            <g id="Group-3">
                <rect id="Rectangle-3" fill="#FA2D3E" x="176.6" y="83" width="134.4" height="45.4025974"></rect>
                <rect id="Rectangle-29" fill="#EBEDF7" x="0" y="0" width="800" height="300"></rect>
                <rect id="Rectangle-3-Copy" fill="#FA2D3E" x="176.6" y="129.597403" width="134.4" height="45.4025974"></rect>
                <path d="M193.355,140.275377 L194.6546,151.103896 L203.7518,151.103896 L197.117,105.678597 L184.0526,105.678597 L177.623,151.103896 L186.5834,151.103896 L187.6778,140.275377 L193.355,140.275377 Z M188.4302,132.579636 C189.0458,126.927013 190.1402,116.711429 190.277,113.578649 L190.619,113.578649 C191.0978,117.937299 191.987,126.790805 192.6026,132.579636 L188.4302,132.579636 Z M207.035,151.103896 L218.3894,151.103896 C226.7342,151.103896 230.0858,147.15387 230.0858,139.253818 L230.0858,135.644312 C230.0858,129.310649 226.9394,127.608052 224.8874,126.722701 C227.0078,125.905455 229.3334,123.998545 229.3334,117.801091 L229.3334,116.03039 C229.3334,109.015688 225.5714,105.678597 217.8422,105.678597 L207.035,105.678597 L207.035,151.103896 Z M215.5166,123.521818 L215.5166,112.557091 L217.1582,112.557091 C219.9626,112.557091 220.9202,113.851065 220.9202,116.779532 L220.9202,119.095065 C220.9202,122.568364 219.8942,123.521818 216.953,123.521818 L215.5166,123.521818 Z M215.5166,130.264104 L216.7478,130.264104 C220.3046,130.264104 221.1938,131.76239 221.1938,135.303792 L221.1938,139.45813 C221.1938,142.863325 220.4414,144.293506 217.295,144.293506 L215.5166,144.293506 L215.5166,130.264104 Z M233.6426,117.596779 L233.6426,138.981403 C233.6426,147.834909 237.5414,151.784935 245.1338,151.784935 C253.1366,151.784935 257.3774,147.903013 257.3774,138.913299 L257.3774,117.801091 C257.3774,108.743273 252.5894,104.997558 245.5442,104.997558 C238.499,104.997558 233.6426,108.811377 233.6426,117.596779 Z M245.4758,112.488987 C247.6646,112.488987 248.417,113.919169 248.417,116.779532 L248.417,140.002961 C248.417,142.999532 247.5278,144.36161 245.4758,144.36161 C243.4922,144.36161 242.5346,142.863325 242.5346,140.071065 L242.5346,116.847636 C242.5346,113.782961 243.5606,112.488987 245.4758,112.488987 L245.4758,112.488987 Z M261.8918,105.678597 L261.8918,139.594338 C261.8918,147.903013 265.4486,151.716831 273.383,151.716831 C281.4542,151.716831 285.1478,147.766805 285.1478,139.730545 L285.1478,105.678597 L276.2558,105.678597 L276.2558,140.275377 C276.2558,142.727117 275.6402,144.36161 273.5198,144.36161 C271.5362,144.36161 270.7154,142.931429 270.7154,140.275377 L270.7154,105.678597 L261.8918,105.678597 Z M294.6554,151.103896 L303.479,151.103896 L303.479,113.374338 L310.1138,113.374338 L310.1138,105.678597 L288.0206,105.678597 L288.0206,113.374338 L294.6554,113.374338 L294.6554,151.103896 Z" id="ABOUT" fill="#0C1521"></path>
                <use id="Rectangle-10" stroke="#95A4B9" mask="url(#mask-2)" stroke-width="2.4000001" opacity="0.4" transform="translate(161.000000, 152.298701) rotate(-180.000000) translate(-161.000000, -152.298701) " xlink:href="#path-1"></use>
                <use id="Rectangle-10-Copy" stroke="#95A4B9" mask="url(#mask-4)" stroke-width="2.4000001" opacity="0.4" transform="translate(161.000000, 105.701299) rotate(-180.000000) translate(-161.000000, -105.701299) " xlink:href="#path-3"></use>
                <path d="M119.160156,108.679688 L121.613281,108.679688 L121.613281,99.8671875 L118.675781,101.28125 L118.675781,99.765625 L121.597656,98.375 L123.175781,98.375 L123.175781,108.679688 L125.597656,108.679688 L125.597656,110 L119.160156,110 L119.160156,108.679688 Z M135.433594,104.90625 L135.433594,105.609375 L129.207031,105.609375 L129.207031,105.65625 C129.165364,106.848964 129.393227,107.705727 129.890625,108.226562 C130.388023,108.747398 131.089839,109.007812 131.996094,109.007812 C132.454429,109.007812 132.933591,108.934897 133.433594,108.789062 C133.933596,108.643228 134.467445,108.421876 135.035156,108.125 L135.035156,109.554688 C134.488279,109.778647 133.96094,109.946614 133.453125,110.058594 C132.94531,110.170573 132.454429,110.226562 131.980469,110.226562 C130.621087,110.226562 129.558598,109.819014 128.792969,109.003906 C128.02734,108.188798 127.644531,107.065111 127.644531,105.632812 C127.644531,104.236972 128.019528,103.1224 128.769531,102.289062 C129.519535,101.455725 130.519525,101.039062 131.769531,101.039062 C132.88412,101.039062 133.763018,101.416663 134.40625,102.171875 C135.049482,102.927087 135.391927,103.838536 135.433594,104.90625 L135.433594,104.90625 Z M133.996094,104.484375 C133.933593,103.880205 133.713544,103.358075 133.335938,102.917969 C132.958331,102.477862 132.415368,102.257812 131.707031,102.257812 C131.014319,102.257812 130.444013,102.486977 129.996094,102.945312 C129.548175,103.403648 129.303386,103.919268 129.261719,104.492188 L133.996094,104.484375 Z M141.597656,102.140625 C141.77474,101.765623 141.999999,101.488282 142.273438,101.308594 C142.546876,101.128905 142.8763,101.039062 143.261719,101.039062 C143.964847,101.039062 144.460936,101.311195 144.75,101.855469 C145.039064,102.399742 145.183594,103.424472 145.183594,104.929688 L145.183594,110 L143.871094,110 L143.871094,104.992188 C143.871094,103.757806 143.802084,102.990887 143.664062,102.691406 C143.526041,102.391926 143.274741,102.242188 142.910156,102.242188 C142.493488,102.242188 142.208334,102.402342 142.054688,102.722656 C141.901041,103.04297 141.824219,103.799473 141.824219,104.992188 L141.824219,110 L140.511719,110 L140.511719,104.992188 C140.511719,103.742181 140.437501,102.971356 140.289062,102.679688 C140.140624,102.388019 139.8737,102.242188 139.488281,102.242188 C139.108071,102.242188 138.843751,102.402342 138.695312,102.722656 C138.546874,103.04297 138.472656,103.799473 138.472656,104.992188 L138.472656,110 L137.167969,110 L137.167969,101.25 L138.472656,101.25 L138.472656,102 C138.644532,101.687498 138.859374,101.44922 139.117188,101.285156 C139.375001,101.121093 139.667967,101.039062 139.996094,101.039062 C140.391929,101.039062 140.721353,101.130207 140.984375,101.3125 C141.247397,101.494793 141.451822,101.770831 141.597656,102.140625 L141.597656,102.140625 Z" id="1em" fill="#7B8BA0"></path>
                <path d="M119.160156,153.679688 L121.613281,153.679688 L121.613281,144.867188 L118.675781,146.28125 L118.675781,144.765625 L121.597656,143.375 L123.175781,143.375 L123.175781,153.679688 L125.597656,153.679688 L125.597656,155 L119.160156,155 L119.160156,153.679688 Z M135.433594,149.90625 L135.433594,150.609375 L129.207031,150.609375 L129.207031,150.65625 C129.165364,151.848964 129.393227,152.705727 129.890625,153.226562 C130.388023,153.747398 131.089839,154.007812 131.996094,154.007812 C132.454429,154.007812 132.933591,153.934897 133.433594,153.789062 C133.933596,153.643228 134.467445,153.421876 135.035156,153.125 L135.035156,154.554688 C134.488279,154.778647 133.96094,154.946614 133.453125,155.058594 C132.94531,155.170573 132.454429,155.226562 131.980469,155.226562 C130.621087,155.226562 129.558598,154.819014 128.792969,154.003906 C128.02734,153.188798 127.644531,152.065111 127.644531,150.632812 C127.644531,149.236972 128.019528,148.1224 128.769531,147.289062 C129.519535,146.455725 130.519525,146.039062 131.769531,146.039062 C132.88412,146.039062 133.763018,146.416663 134.40625,147.171875 C135.049482,147.927087 135.391927,148.838536 135.433594,149.90625 L135.433594,149.90625 Z M133.996094,149.484375 C133.933593,148.880205 133.713544,148.358075 133.335938,147.917969 C132.958331,147.477862 132.415368,147.257812 131.707031,147.257812 C131.014319,147.257812 130.444013,147.486977 129.996094,147.945312 C129.548175,148.403648 129.303386,148.919268 129.261719,149.492188 L133.996094,149.484375 Z M141.597656,147.140625 C141.77474,146.765623 141.999999,146.488282 142.273438,146.308594 C142.546876,146.128905 142.8763,146.039062 143.261719,146.039062 C143.964847,146.039062 144.460936,146.311195 144.75,146.855469 C145.039064,147.399742 145.183594,148.424472 145.183594,149.929688 L145.183594,155 L143.871094,155 L143.871094,149.992188 C143.871094,148.757806 143.802084,147.990887 143.664062,147.691406 C143.526041,147.391926 143.274741,147.242188 142.910156,147.242188 C142.493488,147.242188 142.208334,147.402342 142.054688,147.722656 C141.901041,148.04297 141.824219,148.799473 141.824219,149.992188 L141.824219,155 L140.511719,155 L140.511719,149.992188 C140.511719,148.742181 140.437501,147.971356 140.289062,147.679688 C140.140624,147.388019 139.8737,147.242188 139.488281,147.242188 C139.108071,147.242188 138.843751,147.402342 138.695312,147.722656 C138.546874,148.04297 138.472656,148.799473 138.472656,149.992188 L138.472656,155 L137.167969,155 L137.167969,146.25 L138.472656,146.25 L138.472656,147 C138.644532,146.687498 138.859374,146.44922 139.117188,146.285156 C139.375001,146.121093 139.667967,146.039062 139.996094,146.039062 C140.391929,146.039062 140.721353,146.130207 140.984375,146.3125 C141.247397,146.494793 141.451822,146.770831 141.597656,147.140625 L141.597656,147.140625 Z" id="1em-copy" fill="#7B8BA0"></path>
            </g>
            <g id="Group-2" transform="translate(471.000000, 55.000000)">
                <path d="M16.6569371,82.9681522 L17.9595664,93.8043478 L27.077972,93.8043478 L20.4277063,48.3468478 L7.33285315,48.3468478 L0.888265734,93.8043478 L9.86955245,93.8043478 L10.9665035,82.9681522 L16.6569371,82.9681522 Z M11.7206573,75.2669565 C12.3376923,69.6103261 13.4346434,59.3875 13.5717622,56.2525 L13.9145594,56.2525 C14.3944755,60.6142391 15.2857483,69.4740217 15.9027832,75.2669565 L11.7206573,75.2669565 Z M37.5856084,93.8043478 L48.9664755,93.8043478 C57.3307273,93.8043478 60.6901399,89.8515217 60.6901399,81.9458696 L60.6901399,78.3338043 C60.6901399,71.9956522 57.5364056,70.2918478 55.4796224,69.4058696 C57.604965,68.5880435 59.935986,66.6797826 59.935986,60.4779348 L59.935986,58.7059783 C59.935986,51.6863043 56.1652168,48.3468478 48.418,48.3468478 L37.5856084,48.3468478 L37.5856084,93.8043478 Z M46.086979,66.2027174 L46.086979,55.2302174 L47.7324056,55.2302174 C50.5433427,55.2302174 51.5031748,56.5251087 51.5031748,59.4556522 L51.5031748,61.7728261 C51.5031748,65.248587 50.4747832,66.2027174 47.5267273,66.2027174 L46.086979,66.2027174 Z M46.086979,72.9497826 L47.321049,72.9497826 C50.8861399,72.9497826 51.7774126,74.4491304 51.7774126,77.9930435 L51.7774126,82.1503261 C51.7774126,85.5579348 51.0232587,86.9891304 47.8695245,86.9891304 L46.086979,86.9891304 L46.086979,72.9497826 Z M83.6755944,47.6653261 C76.613972,47.6653261 71.7462517,51.4818478 71.7462517,60.2734783 L71.7462517,81.6732609 C71.7462517,90.5330435 75.6541399,94.4858696 83.2642378,94.4858696 C91.2856923,94.4858696 95.5363776,90.6011957 95.5363776,81.6051087 L95.5363776,60.4779348 C95.5363776,51.4136957 90.7372168,47.6653261 83.6755944,47.6653261 L83.6755944,47.6653261 Z M83.607035,55.1620652 C85.8009371,55.1620652 86.5550909,56.5932609 86.5550909,59.4556522 L86.5550909,82.6955435 C86.5550909,85.6942391 85.6638182,87.0572826 83.607035,87.0572826 C81.6188112,87.0572826 80.658979,85.5579348 80.658979,82.7636957 L80.658979,59.5238043 C80.658979,56.4569565 81.6873706,55.1620652 83.607035,55.1620652 L83.607035,55.1620652 Z M107.278084,48.3468478 L107.278084,82.2866304 C107.278084,90.6011957 110.843175,94.4177174 118.79607,94.4177174 C126.886084,94.4177174 130.588294,90.4648913 130.588294,82.4229348 L130.588294,48.3468478 L121.675566,48.3468478 L121.675566,82.9681522 C121.675566,85.4216304 121.058531,87.0572826 118.933189,87.0572826 C116.944965,87.0572826 116.122252,85.626087 116.122252,82.9681522 L116.122252,48.3468478 L107.278084,48.3468478 Z M147.334839,93.8043478 L156.179007,93.8043478 L156.179007,56.0480435 L162.829273,56.0480435 L162.829273,48.3468478 L140.684573,48.3468478 L140.684573,56.0480435 L147.334839,56.0480435 L147.334839,93.8043478 Z" id="ABOUT-Copy" fill="#0C1521"></path>
                <rect id="Rectangle-5" fill="#FA2D3E" x="27.6643357" y="48.3695652" width="8.41958042" height="45.4347826"></rect>
                <rect id="Rectangle-5-Copy" fill="#FA2D3E" x="61.3426573" y="48.3695652" width="8.41958042" height="45.4347826"></rect>
                <rect id="Rectangle-5-Copy-2" fill="#FA2D3E" x="96.2237762" y="48.3695652" width="8.41958042" height="45.4347826"></rect>
                <rect id="Rectangle-5-Copy-3" fill="#FA2D3E" x="131.104895" y="48.3695652" width="8.41958042" height="45.4347826"></rect>
                <rect id="Rectangle-5-Copy-4" fill="#FA2D3E" x="163.58042" y="48.3695652" width="8.41958042" height="45.4347826"></rect>
                <path d="M81.2304688,0.1640625 C82.4752666,0.1640625 83.4166635,0.671869922 84.0546875,1.6875 C84.6927115,2.70313008 85.0117188,4.20571922 85.0117188,6.1953125 C85.0117188,8.18490578 84.6927115,9.68749492 84.0546875,10.703125 C83.4166635,11.7187551 82.4752666,12.2265625 81.2304688,12.2265625 C79.9856709,12.2265625 79.0455761,11.7187551 78.4101562,10.703125 C77.7747364,9.68749492 77.4570312,8.18490578 77.4570312,6.1953125 C77.4570312,4.20571922 77.7747364,2.70313008 78.4101562,1.6875 C79.0455761,0.671869922 79.9856709,0.1640625 81.2304688,0.1640625 L81.2304688,0.1640625 Z M81.2304688,10.9765625 C81.9700558,10.9765625 82.5208315,10.5833373 82.8828125,9.796875 C83.2447935,9.01041273 83.4257812,7.80990391 83.4257812,6.1953125 C83.4257812,5.3359332 83.3736984,4.5598993 83.2695312,3.8671875 L79.5507812,9.6875 C79.9414082,10.5468793 80.5012984,10.9765625 81.2304688,10.9765625 L81.2304688,10.9765625 Z M81.2304688,1.4140625 C80.4960901,1.4140625 79.9479185,1.80728773 79.5859375,2.59375 C79.2239565,3.38021227 79.0429688,4.58072109 79.0429688,6.1953125 C79.0429688,6.92969117 79.0924474,7.6171843 79.1914062,8.2578125 L82.8320312,2.453125 C82.4361959,1.7604132 81.9023471,1.4140625 81.2304688,1.4140625 L81.2304688,1.4140625 Z M89.0898438,8.84375 L91.8398438,8.84375 L91.8398438,12 L89.0898438,12 L89.0898438,8.84375 Z M103.425781,0.59375 L103.425781,2.046875 C103.097655,1.8541657 102.7487,1.70703176 102.378906,1.60546875 C102.009113,1.50390574 101.6237,1.453125 101.222656,1.453125 C100.222651,1.453125 99.4648463,1.82942332 98.9492188,2.58203125 C98.4335912,3.33463918 98.1757812,4.44270102 98.1757812,5.90625 C98.4257825,5.38541406 98.7721332,4.98567848 99.2148438,4.70703125 C99.6575543,4.42838402 100.165362,4.2890625 100.738281,4.2890625 C101.863287,4.2890625 102.734372,4.63411113 103.351562,5.32421875 C103.968753,6.01432637 104.277344,6.99218117 104.277344,8.2578125 C104.277344,9.51823547 103.959639,10.4947882 103.324219,11.1875 C102.688799,11.8802118 101.795579,12.2265625 100.644531,12.2265625 C99.2903578,12.2265625 98.2981802,11.7408903 97.6679688,10.7695312 C97.0377573,9.79817223 96.7226562,8.26823961 96.7226562,6.1796875 C96.7226562,4.21092766 97.1015587,2.70964059 97.859375,1.67578125 C98.6171913,0.641921914 99.7148366,0.125 101.152344,0.125 C101.537762,0.125 101.923175,0.16536418 102.308594,0.24609375 C102.694012,0.32682332 103.066404,0.442707578 103.425781,0.59375 L103.425781,0.59375 Z M100.613281,5.5234375 C99.9414029,5.5234375 99.4127623,5.76562258 99.0273438,6.25 C98.6419252,6.73437742 98.4492188,7.40364156 98.4492188,8.2578125 C98.4492188,9.11198344 98.6419252,9.78124758 99.0273438,10.265625 C99.4127623,10.7500024 99.9414029,10.9921875 100.613281,10.9921875 C101.311201,10.9921875 101.837238,10.7617211 102.191406,10.3007812 C102.545575,9.83984145 102.722656,9.15885867 102.722656,8.2578125 C102.722656,7.35155797 102.545575,6.66927313 102.191406,6.2109375 C101.837238,5.75260187 101.311201,5.5234375 100.613281,5.5234375 L100.613281,5.5234375 Z M114.066406,6.90625 L114.066406,7.609375 L107.839844,7.609375 L107.839844,7.65625 C107.798177,8.8489643 108.026039,9.70572656 108.523438,10.2265625 C109.020836,10.7473984 109.722652,11.0078125 110.628906,11.0078125 C111.087242,11.0078125 111.566404,10.9348966 112.066406,10.7890625 C112.566409,10.6432284 113.100258,10.4218765 113.667969,10.125 L113.667969,11.5546875 C113.121091,11.778647 112.593753,11.946614 112.085938,12.0585938 C111.578122,12.1705735 111.087242,12.2265625 110.613281,12.2265625 C109.253899,12.2265625 108.19141,11.8190145 107.425781,11.0039062 C106.660152,10.188798 106.277344,9.06511133 106.277344,7.6328125 C106.277344,6.23697219 106.65234,5.1224 107.402344,4.2890625 C108.152347,3.455725 109.152338,3.0390625 110.402344,3.0390625 C111.516933,3.0390625 112.39583,3.41666289 113.039062,4.171875 C113.682295,4.92708711 114.024739,5.83853633 114.066406,6.90625 L114.066406,6.90625 Z M112.628906,6.484375 C112.566406,5.88020531 112.346356,5.35807512 111.96875,4.91796875 C111.591144,4.47786238 111.048181,4.2578125 110.339844,4.2578125 C109.647132,4.2578125 109.076825,4.48697687 108.628906,4.9453125 C108.180987,5.40364813 107.936198,5.91926797 107.894531,6.4921875 L112.628906,6.484375 Z M120.230469,4.140625 C120.407553,3.76562312 120.632811,3.48828215 120.90625,3.30859375 C121.179689,3.12890535 121.509113,3.0390625 121.894531,3.0390625 C122.59766,3.0390625 123.093749,3.3111952 123.382812,3.85546875 C123.671876,4.3997423 123.816406,5.42447164 123.816406,6.9296875 L123.816406,12 L122.503906,12 L122.503906,6.9921875 C122.503906,5.75780633 122.434897,4.99088691 122.296875,4.69140625 C122.158853,4.39192559 121.907554,4.2421875 121.542969,4.2421875 C121.1263,4.2421875 120.841147,4.40234215 120.6875,4.72265625 C120.533853,5.04297035 120.457031,5.7994732 120.457031,6.9921875 L120.457031,12 L119.144531,12 L119.144531,6.9921875 C119.144531,5.74218125 119.070313,4.97135563 118.921875,4.6796875 C118.773437,4.38801937 118.506512,4.2421875 118.121094,4.2421875 C117.740884,4.2421875 117.476563,4.40234215 117.328125,4.72265625 C117.179687,5.04297035 117.105469,5.7994732 117.105469,6.9921875 L117.105469,12 L115.800781,12 L115.800781,3.25 L117.105469,3.25 L117.105469,4 C117.277345,3.68749844 117.492186,3.44921957 117.75,3.28515625 C118.007814,3.12109293 118.30078,3.0390625 118.628906,3.0390625 C119.024742,3.0390625 119.354165,3.13020742 119.617188,3.3125 C119.88021,3.49479258 120.084635,3.77083148 120.230469,4.140625 L120.230469,4.140625 Z" id="0.6em" fill="#7B8BA0"></path>
                <g id="Group" opacity="0.400000006" transform="translate(27.664336, 18.739130)" stroke="#95A4B9">
                    <use id="Rectangle-10-Copy-2" mask="url(#mask-6)" stroke-width="2.4000001" transform="translate(4.209790, 23.652174) rotate(-90.000000) translate(-4.209790, -23.652174) " xlink:href="#path-5"></use>
                    <use id="Rectangle-10-Copy-3" mask="url(#mask-8)" stroke-width="2.4000001" transform="translate(37.888112, 23.652174) rotate(-90.000000) translate(-37.888112, -23.652174) " xlink:href="#path-7"></use>
                    <use id="Rectangle-10-Copy-4" mask="url(#mask-10)" stroke-width="2.4000001" transform="translate(72.769231, 23.652174) rotate(-90.000000) translate(-72.769231, -23.652174) " xlink:href="#path-9"></use>
                    <use id="Rectangle-10-Copy-5" mask="url(#mask-12)" stroke-width="2.4000001" transform="translate(107.650350, 23.652174) rotate(-90.000000) translate(-107.650350, -23.652174) " xlink:href="#path-11"></use>
                    <use id="Rectangle-10-Copy-6" mask="url(#mask-14)" stroke-width="2.4000001" transform="translate(140.125874, 23.652174) rotate(-90.000000) translate(-140.125874, -23.652174) " xlink:href="#path-13"></use>
                    <polyline id="Path-1" stroke-width="1.20000005" points="4.83644285 22.3566895 4.83644285 8.21297744 140.410901 8.21297744 140.410901 22.5564324"></polyline>
                    <path d="M72.973025,22.0624469 L72.973025,0.187000393" id="Path-3" stroke-width="1.20000005"></path>
                    <path d="M37.8881119,22.0710987 L37.8881119,8.56521739" id="Path-3-Copy" stroke-width="1.20000005"></path>
                    <path d="M107.65035,22.0710987 L107.65035,8.56521739" id="Path-3-Copy-2" stroke-width="1.20000005"></path>
                </g>
            </g>
            <path d="M448.195312,226.895508 L448.195312,219.301758 L445.584961,219.301758 L445.584961,217.324219 L450.770508,217.324219 L450.770508,226.895508 C450.770508,227.668949 450.890624,228.216795 451.130859,228.539062 C451.371095,228.86133 451.778317,229.022461 452.352539,229.022461 L454.40918,229.022461 L454.40918,231 L451.631836,231 C450.40722,231 449.528323,230.683597 448.995117,230.050781 C448.461911,229.417966 448.195312,228.366218 448.195312,226.895508 L448.195312,226.895508 Z M465.316406,230.516602 C464.718747,230.762697 464.109378,230.947265 463.488281,231.070312 C462.867184,231.19336 462.210941,231.254883 461.519531,231.254883 C459.873039,231.254883 458.61475,230.813969 457.744629,229.932129 C456.874507,229.050289 456.439453,227.780282 456.439453,226.12207 C456.439453,224.516594 456.858394,223.248052 457.696289,222.316406 C458.534184,221.384761 459.676751,220.918945 461.124023,220.918945 C462.583015,220.918945 463.715328,221.35107 464.520996,222.215332 C465.326664,223.079594 465.729492,224.296867 465.729492,225.867188 L465.729492,226.913086 L459.058594,226.913086 C459.064453,227.686527 459.292966,228.26367 459.744141,228.644531 C460.195315,229.025393 460.869136,229.21582 461.765625,229.21582 C462.357425,229.21582 462.940427,229.13086 463.514648,228.960938 C464.08887,228.791015 464.68945,228.521486 465.316406,228.152344 L465.316406,230.516602 Z M463.136719,224.979492 C463.125,224.299801 462.950685,223.785646 462.61377,223.437012 C462.276854,223.088377 461.780277,222.914062 461.124023,222.914062 C460.532224,222.914062 460.060549,223.094236 459.708984,223.45459 C459.35742,223.814943 459.149414,224.326169 459.084961,224.988281 L463.136719,224.979492 Z M472.532227,218.361328 L472.532227,221.15625 L475.898438,221.15625 L475.898438,223.133789 L472.532227,223.133789 L472.532227,227.791992 C472.532227,228.231448 472.639159,228.546386 472.853027,228.736816 C473.066896,228.927247 473.422849,229.022461 473.920898,229.022461 L475.898438,229.022461 L475.898438,231 L473.736328,231 C472.259758,231 471.260745,230.764163 470.739258,230.29248 C470.217771,229.820798 469.957031,228.946295 469.957031,227.668945 L469.957031,223.133789 L467.443359,223.133789 L467.443359,221.15625 L469.957031,221.15625 L469.957031,218.361328 L472.532227,218.361328 Z M483.369141,218.361328 L483.369141,221.15625 L486.735352,221.15625 L486.735352,223.133789 L483.369141,223.133789 L483.369141,227.791992 C483.369141,228.231448 483.476073,228.546386 483.689941,228.736816 C483.90381,228.927247 484.259763,229.022461 484.757812,229.022461 L486.735352,229.022461 L486.735352,231 L484.573242,231 C483.096672,231 482.097659,230.764163 481.576172,230.29248 C481.054685,229.820798 480.793945,228.946295 480.793945,227.668945 L480.793945,223.133789 L478.280273,223.133789 L478.280273,221.15625 L480.793945,221.15625 L480.793945,218.361328 L483.369141,218.361328 Z M497.827148,230.516602 C497.229489,230.762697 496.62012,230.947265 495.999023,231.070312 C495.377927,231.19336 494.721683,231.254883 494.030273,231.254883 C492.383781,231.254883 491.125493,230.813969 490.255371,229.932129 C489.38525,229.050289 488.950195,227.780282 488.950195,226.12207 C488.950195,224.516594 489.369136,223.248052 490.207031,222.316406 C491.044926,221.384761 492.187493,220.918945 493.634766,220.918945 C495.093757,220.918945 496.22607,221.35107 497.031738,222.215332 C497.837406,223.079594 498.240234,224.296867 498.240234,225.867188 L498.240234,226.913086 L491.569336,226.913086 C491.575195,227.686527 491.803709,228.26367 492.254883,228.644531 C492.706057,229.025393 493.379878,229.21582 494.276367,229.21582 C494.868167,229.21582 495.451169,229.13086 496.025391,228.960938 C496.599612,228.791015 497.200192,228.521486 497.827148,228.152344 L497.827148,230.516602 Z M495.647461,224.979492 C495.635742,224.299801 495.461427,223.785646 495.124512,223.437012 C494.787596,223.088377 494.291019,222.914062 493.634766,222.914062 C493.042966,222.914062 492.571291,223.094236 492.219727,223.45459 C491.868162,223.814943 491.660157,224.326169 491.595703,224.988281 L495.647461,224.979492 Z M509.094727,223.87207 C508.813475,223.614257 508.483889,223.420899 508.105957,223.291992 C507.728025,223.163085 507.313479,223.098633 506.862305,223.098633 C506.31738,223.098633 505.841311,223.193847 505.434082,223.384277 C505.026853,223.574708 504.711915,223.851561 504.489258,224.214844 C504.348632,224.437501 504.250489,224.70703 504.194824,225.023438 C504.13916,225.339845 504.111328,225.820309 504.111328,226.464844 L504.111328,231 L501.536133,231 L501.536133,221.15625 L504.111328,221.15625 L504.111328,222.685547 C504.363283,222.123044 504.749997,221.68799 505.271484,221.380371 C505.792971,221.072752 506.40234,220.918945 507.099609,220.918945 C507.451174,220.918945 507.795408,220.961425 508.132324,221.046387 C508.46924,221.131348 508.790038,221.255859 509.094727,221.419922 L509.094727,223.87207 Z M510.711914,224.636719 L520.02832,224.636719 L520.02832,227.000977 L510.711914,227.000977 L510.711914,224.636719 Z M529.362305,221.463867 L529.362305,223.713867 C528.887693,223.409178 528.394046,223.1792 527.881348,223.023926 C527.36865,222.868652 526.854495,222.791016 526.338867,222.791016 C525.764646,222.791016 525.331056,222.874511 525.038086,223.041504 C524.745116,223.208497 524.598633,223.456053 524.598633,223.78418 C524.598633,224.252932 525.22558,224.633788 526.479492,224.926758 L526.576172,224.953125 L527.314453,225.128906 C528.251958,225.351564 528.938963,225.710447 529.375488,226.205566 C529.812014,226.700686 530.030273,227.370113 530.030273,228.213867 C530.030273,229.227544 529.697757,229.98779 529.032715,230.494629 C528.367672,231.001467 527.367194,231.254883 526.03125,231.254883 C525.43945,231.254883 524.833011,231.203614 524.211914,231.101074 C523.590817,230.998535 522.960941,230.844728 522.322266,230.639648 L522.322266,228.389648 C522.890628,228.711916 523.469235,228.958007 524.058105,229.12793 C524.646976,229.297852 525.216794,229.382812 525.767578,229.382812 C526.371097,229.382812 526.828123,229.294923 527.138672,229.119141 C527.44922,228.943358 527.604492,228.688478 527.604492,228.354492 C527.604492,228.026366 527.49463,227.774415 527.274902,227.598633 C527.055175,227.422851 526.532231,227.235353 525.706055,227.036133 L524.994141,226.87793 C524.009761,226.655272 523.291994,226.306643 522.84082,225.832031 C522.389646,225.35742 522.164062,224.721684 522.164062,223.924805 C522.164062,222.975581 522.506833,222.237307 523.192383,221.709961 C523.877933,221.182615 524.841791,220.918945 526.083984,220.918945 C526.640628,220.918945 527.195798,220.964355 527.749512,221.055176 C528.303225,221.145997 528.840818,221.282226 529.362305,221.463867 L529.362305,221.463867 Z M535.374023,229.611328 L535.374023,234.744141 L532.807617,234.744141 L532.807617,221.15625 L535.374023,221.15625 L535.374023,222.632812 C535.643556,222.06445 535.998045,221.63672 536.4375,221.349609 C536.876955,221.062499 537.392575,220.918945 537.984375,220.918945 C539.109381,220.918945 539.982419,221.370113 540.603516,222.272461 C541.224612,223.174809 541.535156,224.446281 541.535156,226.086914 C541.535156,227.750985 541.220218,229.028316 540.590332,229.918945 C539.960446,230.809575 539.062506,231.254883 537.896484,231.254883 C537.369138,231.254883 536.895998,231.118654 536.477051,230.846191 C536.058103,230.573729 535.690431,230.162112 535.374023,229.611328 L535.374023,229.611328 Z M538.959961,226.069336 C538.959961,225.120112 538.801759,224.375979 538.485352,223.836914 C538.168944,223.297849 537.732425,223.02832 537.175781,223.02832 C536.619138,223.02832 536.179689,223.297849 535.857422,223.836914 C535.535155,224.375979 535.374023,225.120112 535.374023,226.069336 C535.374023,227.018559 535.535155,227.762693 535.857422,228.301758 C536.179689,228.840823 536.619138,229.110352 537.175781,229.110352 C537.732425,229.110352 538.168944,228.840823 538.485352,228.301758 C538.801759,227.762693 538.959961,227.018559 538.959961,226.069336 L538.959961,226.069336 Z M548.478516,226.376953 C547.517573,226.376953 546.846682,226.499999 546.46582,226.746094 C546.084959,226.992189 545.894531,227.41406 545.894531,228.011719 C545.894531,228.457033 546.026366,228.811522 546.290039,229.075195 C546.553712,229.338869 546.911131,229.470703 547.362305,229.470703 C548.041996,229.470703 548.569334,229.214358 548.944336,228.70166 C549.319338,228.188962 549.506836,227.472661 549.506836,226.552734 L549.506836,226.376953 L548.478516,226.376953 Z M552.064453,225.383789 L552.064453,231 L549.506836,231 L549.506836,229.901367 C549.196288,230.334963 548.797854,230.668944 548.311523,230.90332 C547.825193,231.137696 547.289065,231.254883 546.703125,231.254883 C545.583979,231.254883 544.712405,230.958987 544.088379,230.367188 C543.464352,229.775388 543.152344,228.949224 543.152344,227.888672 C543.152344,226.740229 543.52441,225.892093 544.268555,225.344238 C545.012699,224.796384 546.164055,224.522461 547.722656,224.522461 L549.506836,224.522461 L549.506836,224.091797 C549.506836,223.675779 549.355959,223.360841 549.054199,223.146973 C548.75244,222.933104 548.308597,222.826172 547.722656,222.826172 C547.107419,222.826172 546.511233,222.903808 545.934082,223.059082 C545.356931,223.214356 544.754886,223.461912 544.12793,223.801758 L544.12793,221.604492 C544.696292,221.370116 545.273435,221.197266 545.859375,221.085938 C546.445315,220.974609 547.066403,220.918945 547.722656,220.918945 C549.322274,220.918945 550.445798,221.244137 551.093262,221.894531 C551.740726,222.544925 552.064453,223.707999 552.064453,225.383789 L552.064453,225.383789 Z M562.488281,230.499023 C562.054685,230.750978 561.58887,230.939941 561.09082,231.065918 C560.592771,231.191895 560.056643,231.254883 559.482422,231.254883 C557.964836,231.254883 556.778325,230.797856 555.922852,229.883789 C555.067379,228.969722 554.639648,227.70411 554.639648,226.086914 C554.639648,224.463859 555.070308,223.193852 555.931641,222.276855 C556.792973,221.359859 557.982414,220.901367 559.5,220.901367 C560.027346,220.901367 560.535642,220.96289 561.024902,221.085938 C561.514163,221.208985 562.001951,221.399413 562.488281,221.657227 L562.488281,224.012695 C562.113279,223.690428 561.701662,223.442872 561.253418,223.27002 C560.805174,223.097167 560.340823,223.010742 559.860352,223.010742 C559.022457,223.010742 558.377932,223.277341 557.926758,223.810547 C557.475584,224.343753 557.25,225.102534 557.25,226.086914 C557.25,227.071294 557.475584,227.827146 557.926758,228.354492 C558.377932,228.881839 559.022457,229.145508 559.860352,229.145508 C560.358401,229.145508 560.824217,229.062013 561.257812,228.89502 C561.691408,228.728027 562.101561,228.474611 562.488281,228.134766 L562.488281,230.499023 Z M565.942383,221.15625 L571.040039,221.15625 L571.040039,229.022461 L574.239258,229.022461 L574.239258,231 L565.256836,231 L565.256836,229.022461 L568.464844,229.022461 L568.464844,223.133789 L565.942383,223.133789 L565.942383,221.15625 Z M568.464844,216.366211 L571.040039,216.366211 L571.040039,219.37207 L568.464844,219.37207 L568.464844,216.366211 Z M584.25,224.610352 L584.25,231 L581.692383,231 L581.692383,225.005859 C581.692383,224.291012 581.59131,223.779787 581.38916,223.472168 C581.187011,223.164549 580.857424,223.010742 580.400391,223.010742 C579.937498,223.010742 579.572755,223.218748 579.306152,223.634766 C579.039549,224.050783 578.90625,224.627926 578.90625,225.366211 L578.90625,231 L576.348633,231 L576.348633,221.15625 L578.90625,221.15625 L578.90625,222.632812 C579.087892,222.087888 579.398435,221.666017 579.837891,221.367188 C580.277346,221.068358 580.807614,220.918945 581.428711,220.918945 C582.360356,220.918945 583.063474,221.228024 583.538086,221.846191 C584.012698,222.464359 584.25,223.385736 584.25,224.610352 L584.25,224.610352 Z M592.731445,225.919922 C592.731445,225.041011 592.564455,224.336428 592.230469,223.806152 C591.896483,223.275876 591.457034,223.010742 590.912109,223.010742 C590.373044,223.010742 589.93799,223.274411 589.606934,223.801758 C589.275877,224.329104 589.110352,225.035152 589.110352,225.919922 C589.110352,226.810551 589.275877,227.519529 589.606934,228.046875 C589.93799,228.574221 590.373044,228.837891 590.912109,228.837891 C591.457034,228.837891 591.896483,228.572757 592.230469,228.04248 C592.564455,227.512204 592.731445,226.804692 592.731445,225.919922 L592.731445,225.919922 Z M595.306641,230.261719 C595.306641,231.837899 594.950687,232.976071 594.23877,233.67627 C593.526852,234.376468 592.371102,234.726562 590.771484,234.726562 C590.232419,234.726562 589.699221,234.687012 589.171875,234.60791 C588.644529,234.528808 588.108401,234.407227 587.563477,234.243164 L587.563477,231.878906 C588.049807,232.148439 588.544919,232.347656 589.048828,232.476562 C589.552737,232.605469 590.071286,232.669922 590.604492,232.669922 C591.331058,232.669922 591.867186,232.498537 592.212891,232.155762 C592.558595,231.812987 592.731445,231.278324 592.731445,230.551758 L592.731445,229.488281 C592.479491,229.957034 592.14551,230.305663 591.729492,230.53418 C591.313474,230.762696 590.806644,230.876953 590.208984,230.876953 C589.083979,230.876953 588.190433,230.437504 587.52832,229.558594 C586.866208,228.679683 586.535156,227.487312 586.535156,225.981445 C586.535156,224.422844 586.866208,223.186528 587.52832,222.272461 C588.190433,221.358394 589.078119,220.901367 590.191406,220.901367 C590.753909,220.901367 591.254881,221.033202 591.694336,221.296875 C592.133791,221.560548 592.479491,221.932615 592.731445,222.413086 L592.731445,221.15625 L595.306641,221.15625 L595.306641,230.261719 Z M600.457031,221.657227 L603.383789,221.657227 L603.383789,224.865234 L600.457031,224.865234 L600.457031,221.657227 Z M600.457031,227.774414 L603.383789,227.774414 L603.383789,231 L600.457031,231 L600.457031,227.774414 Z M619.265625,224.452148 C619.265625,222.1787 619.625973,220.475103 620.34668,219.341309 C621.067386,218.207514 622.15136,217.640625 623.598633,217.640625 C625.051765,217.640625 626.138668,218.206049 626.859375,219.336914 C627.580082,220.467779 627.94043,222.17284 627.94043,224.452148 C627.94043,226.725597 627.580082,228.427729 626.859375,229.558594 C626.138668,230.689459 625.051765,231.254883 623.598633,231.254883 C622.15136,231.254883 621.067386,230.687994 620.34668,229.554199 C619.625973,228.420404 619.265625,226.719738 619.265625,224.452148 L619.265625,224.452148 Z M622.289062,227.958984 C622.564455,228.69141 623.000974,229.057617 623.598633,229.057617 C624.202151,229.057617 624.6416,228.69141 624.916992,227.958984 C625.192384,227.226559 625.330078,226.057625 625.330078,224.452148 C625.330078,223.84277 625.309571,223.297854 625.268555,222.817383 L622.201172,227.704102 C622.230469,227.797852 622.259765,227.882812 622.289062,227.958984 L622.289062,227.958984 Z M623.598633,219.837891 C623.000974,219.837891 622.564455,220.204098 622.289062,220.936523 C622.01367,221.668949 621.875977,222.840812 621.875977,224.452148 C621.875977,224.950198 621.887695,225.404295 621.911133,225.814453 L624.93457,220.989258 L624.916992,220.936523 C624.6416,220.204098 624.202151,219.837891 623.598633,219.837891 L623.598633,219.837891 Z M632.967773,227.774414 L635.894531,227.774414 L635.894531,231 L632.967773,231 L632.967773,227.774414 Z M645.509766,224.425781 C644.947263,224.425781 644.518068,224.629392 644.222168,225.036621 C643.926268,225.44385 643.77832,226.034176 643.77832,226.807617 C643.77832,227.575199 643.926268,228.162596 644.222168,228.569824 C644.518068,228.977053 644.947263,229.180664 645.509766,229.180664 C646.072268,229.180664 646.504393,228.977053 646.806152,228.569824 C647.107912,228.162596 647.258789,227.575199 647.258789,226.807617 C647.258789,226.040035 647.107912,225.451174 646.806152,225.041016 C646.504393,224.630857 646.072268,224.425781 645.509766,224.425781 L645.509766,224.425781 Z M648.911133,218.185547 L648.911133,220.541016 C648.44824,220.277342 648.004397,220.079591 647.57959,219.947754 C647.154783,219.815917 646.746096,219.75 646.353516,219.75 C645.416011,219.75 644.702639,220.064938 644.213379,220.694824 C643.724119,221.32471 643.467774,222.254877 643.444336,223.485352 C643.719728,223.10449 644.071287,222.818849 644.499023,222.628418 C644.92676,222.437987 645.430661,222.342773 646.010742,222.342773 C647.194342,222.342773 648.108395,222.716305 648.75293,223.463379 C649.397464,224.210453 649.719727,225.269524 649.719727,226.640625 C649.719727,228.111335 649.357914,229.250973 648.634277,230.05957 C647.910641,230.868168 646.892585,231.272461 645.580078,231.272461 C643.980461,231.272461 642.818851,230.736333 642.095215,229.664062 C641.371578,228.591792 641.009766,226.860364 641.009766,224.469727 C641.009766,222.196278 641.452144,220.492681 642.336914,219.358887 C643.221684,218.225092 644.548819,217.658203 646.318359,217.658203 C646.728518,217.658203 647.151853,217.702148 647.588379,217.790039 C648.024905,217.87793 648.465818,218.009765 648.911133,218.185547 L648.911133,218.185547 Z M660.380859,230.516602 C659.7832,230.762697 659.173831,230.947265 658.552734,231.070312 C657.931638,231.19336 657.275394,231.254883 656.583984,231.254883 C654.937492,231.254883 653.679204,230.813969 652.809082,229.932129 C651.93896,229.050289 651.503906,227.780282 651.503906,226.12207 C651.503906,224.516594 651.922847,223.248052 652.760742,222.316406 C653.598637,221.384761 654.741204,220.918945 656.188477,220.918945 C657.647468,220.918945 658.779781,221.35107 659.585449,222.215332 C660.391117,223.079594 660.793945,224.296867 660.793945,225.867188 L660.793945,226.913086 L654.123047,226.913086 C654.128906,227.686527 654.35742,228.26367 654.808594,228.644531 C655.259768,229.025393 655.933589,229.21582 656.830078,229.21582 C657.421878,229.21582 658.00488,229.13086 658.579102,228.960938 C659.153323,228.791015 659.753903,228.521486 660.380859,228.152344 L660.380859,230.516602 Z M658.201172,224.979492 C658.189453,224.299801 658.015138,223.785646 657.678223,223.437012 C657.341307,223.088377 656.84473,222.914062 656.188477,222.914062 C655.596677,222.914062 655.125002,223.094236 654.773438,223.45459 C654.421873,223.814943 654.213868,224.326169 654.149414,224.988281 L658.201172,224.979492 Z M667.59668,222.140625 C667.79004,221.724607 668.036131,221.416993 668.334961,221.217773 C668.633791,221.018554 668.999998,220.918945 669.433594,220.918945 C670.283207,220.918945 670.870604,221.211911 671.195801,221.797852 C671.520998,222.383792 671.683594,223.60253 671.683594,225.454102 L671.683594,231 L669.574219,231 L669.574219,224.680664 C669.574219,223.948239 669.518555,223.458986 669.407227,223.212891 C669.295898,222.966796 669.093751,222.84375 668.800781,222.84375 C668.507811,222.84375 668.302735,222.969725 668.185547,223.22168 C668.068359,223.473634 668.009766,223.959957 668.009766,224.680664 L668.009766,231 L665.926758,231 L665.926758,224.680664 C665.926758,223.959957 665.868165,223.473634 665.750977,223.22168 C665.633788,222.969725 665.428712,222.84375 665.135742,222.84375 C664.842772,222.84375 664.640626,222.966796 664.529297,223.212891 C664.417968,223.458986 664.362305,223.948239 664.362305,224.680664 L664.362305,231 L662.25293,231 L662.25293,221.15625 L664.125,221.15625 L664.125,222.175781 C664.271485,221.789061 664.505858,221.482911 664.828125,221.257324 C665.150392,221.031737 665.51074,220.918945 665.90918,220.918945 C666.307619,220.918945 666.670897,221.037596 666.999023,221.274902 C667.32715,221.512208 667.526367,221.80078 667.59668,222.140625 L667.59668,222.140625 Z M676.31543,227.774414 L679.242188,227.774414 L679.242188,230.15625 L677.519531,233.522461 L675.629883,233.522461 L676.31543,230.15625 L676.31543,227.774414 Z M676.31543,221.657227 L679.242188,221.657227 L679.242188,224.865234 L676.31543,224.865234 L676.31543,221.657227 Z" id="letter-spacing:-0.6e" fill="#7B8BA0"></path>
            <path d="M125.787598,226.895508 L125.787598,219.301758 L123.177246,219.301758 L123.177246,217.324219 L128.362793,217.324219 L128.362793,226.895508 C128.362793,227.668949 128.482909,228.216795 128.723145,228.539062 C128.96338,228.86133 129.370603,229.022461 129.944824,229.022461 L132.001465,229.022461 L132.001465,231 L129.224121,231 C127.999506,231 127.120608,230.683597 126.587402,230.050781 C126.054197,229.417966 125.787598,228.366218 125.787598,226.895508 L125.787598,226.895508 Z M135.165527,221.15625 L140.263184,221.15625 L140.263184,229.022461 L143.462402,229.022461 L143.462402,231 L134.47998,231 L134.47998,229.022461 L137.687988,229.022461 L137.687988,223.133789 L135.165527,223.133789 L135.165527,221.15625 Z M137.687988,216.366211 L140.263184,216.366211 L140.263184,219.37207 L137.687988,219.37207 L137.687988,216.366211 Z M153.473145,224.610352 L153.473145,231 L150.915527,231 L150.915527,225.005859 C150.915527,224.291012 150.814454,223.779787 150.612305,223.472168 C150.410155,223.164549 150.080569,223.010742 149.623535,223.010742 C149.160642,223.010742 148.7959,223.218748 148.529297,223.634766 C148.262694,224.050783 148.129395,224.627926 148.129395,225.366211 L148.129395,231 L145.571777,231 L145.571777,221.15625 L148.129395,221.15625 L148.129395,222.632812 C148.311036,222.087888 148.62158,221.666017 149.061035,221.367188 C149.50049,221.068358 150.030759,220.918945 150.651855,220.918945 C151.583501,220.918945 152.286619,221.228024 152.76123,221.846191 C153.235842,222.464359 153.473145,223.385736 153.473145,224.610352 L153.473145,224.610352 Z M164.58252,230.516602 C163.98486,230.762697 163.375491,230.947265 162.754395,231.070312 C162.133298,231.19336 161.477054,231.254883 160.785645,231.254883 C159.139152,231.254883 157.880864,230.813969 157.010742,229.932129 C156.140621,229.050289 155.705566,227.780282 155.705566,226.12207 C155.705566,224.516594 156.124508,223.248052 156.962402,222.316406 C157.800297,221.384761 158.942864,220.918945 160.390137,220.918945 C161.849128,220.918945 162.981441,221.35107 163.787109,222.215332 C164.592777,223.079594 164.995605,224.296867 164.995605,225.867188 L164.995605,226.913086 L158.324707,226.913086 C158.330566,227.686527 158.55908,228.26367 159.010254,228.644531 C159.461428,229.025393 160.135249,229.21582 161.031738,229.21582 C161.623538,229.21582 162.20654,229.13086 162.780762,228.960938 C163.354983,228.791015 163.955563,228.521486 164.58252,228.152344 L164.58252,230.516602 Z M162.402832,224.979492 C162.391113,224.299801 162.216799,223.785646 161.879883,223.437012 C161.542967,223.088377 161.04639,222.914062 160.390137,222.914062 C159.798337,222.914062 159.326662,223.094236 158.975098,223.45459 C158.623533,223.814943 158.415528,224.326169 158.351074,224.988281 L162.402832,224.979492 Z M166.630371,224.636719 L175.946777,224.636719 L175.946777,227.000977 L166.630371,227.000977 L166.630371,224.636719 Z M185.983887,224.610352 L185.983887,231 L183.42627,231 L183.42627,225.005859 C183.42627,224.296871 183.325196,223.790041 183.123047,223.485352 C182.920897,223.180663 182.591311,223.02832 182.134277,223.02832 C181.665525,223.02832 181.299318,223.234861 181.035645,223.647949 C180.771971,224.061037 180.640137,224.633785 180.640137,225.366211 L180.640137,231 L178.08252,231 L178.08252,217.324219 L180.640137,217.324219 L180.640137,222.632812 C180.821778,222.087888 181.132322,221.666017 181.571777,221.367188 C182.011233,221.068358 182.541501,220.918945 183.162598,220.918945 C184.094243,220.918945 184.797361,221.228024 185.271973,221.846191 C185.746584,222.464359 185.983887,223.385736 185.983887,224.610352 L185.983887,224.610352 Z M197.093262,230.516602 C196.495602,230.762697 195.886234,230.947265 195.265137,231.070312 C194.64404,231.19336 193.987796,231.254883 193.296387,231.254883 C191.649894,231.254883 190.391606,230.813969 189.521484,229.932129 C188.651363,229.050289 188.216309,227.780282 188.216309,226.12207 C188.216309,224.516594 188.63525,223.248052 189.473145,222.316406 C190.311039,221.384761 191.453606,220.918945 192.900879,220.918945 C194.359871,220.918945 195.492183,221.35107 196.297852,222.215332 C197.10352,223.079594 197.506348,224.296867 197.506348,225.867188 L197.506348,226.913086 L190.835449,226.913086 C190.841309,227.686527 191.069822,228.26367 191.520996,228.644531 C191.97217,229.025393 192.645992,229.21582 193.54248,229.21582 C194.13428,229.21582 194.717282,229.13086 195.291504,228.960938 C195.865726,228.791015 196.466305,228.521486 197.093262,228.152344 L197.093262,230.516602 Z M194.913574,224.979492 C194.901855,224.299801 194.727541,223.785646 194.390625,223.437012 C194.053709,223.088377 193.557132,222.914062 192.900879,222.914062 C192.309079,222.914062 191.837404,223.094236 191.48584,223.45459 C191.134276,223.814943 190.92627,224.326169 190.861816,224.988281 L194.913574,224.979492 Z M200.187012,221.15625 L205.284668,221.15625 L205.284668,229.022461 L208.483887,229.022461 L208.483887,231 L199.501465,231 L199.501465,229.022461 L202.709473,229.022461 L202.709473,223.133789 L200.187012,223.133789 L200.187012,221.15625 Z M202.709473,216.366211 L205.284668,216.366211 L205.284668,219.37207 L202.709473,219.37207 L202.709473,216.366211 Z M216.13916,225.919922 C216.13916,225.041011 215.97217,224.336428 215.638184,223.806152 C215.304198,223.275876 214.864749,223.010742 214.319824,223.010742 C213.780759,223.010742 213.345705,223.274411 213.014648,223.801758 C212.683592,224.329104 212.518066,225.035152 212.518066,225.919922 C212.518066,226.810551 212.683592,227.519529 213.014648,228.046875 C213.345705,228.574221 213.780759,228.837891 214.319824,228.837891 C214.864749,228.837891 215.304198,228.572757 215.638184,228.04248 C215.97217,227.512204 216.13916,226.804692 216.13916,225.919922 L216.13916,225.919922 Z M218.714355,230.261719 C218.714355,231.837899 218.358402,232.976071 217.646484,233.67627 C216.934567,234.376468 215.778817,234.726562 214.179199,234.726562 C213.640134,234.726562 213.106936,234.687012 212.57959,234.60791 C212.052243,234.528808 211.516116,234.407227 210.971191,234.243164 L210.971191,231.878906 C211.457522,232.148439 211.952634,232.347656 212.456543,232.476562 C212.960452,232.605469 213.479001,232.669922 214.012207,232.669922 C214.738773,232.669922 215.274901,232.498537 215.620605,232.155762 C215.96631,231.812987 216.13916,231.278324 216.13916,230.551758 L216.13916,229.488281 C215.887206,229.957034 215.553225,230.305663 215.137207,230.53418 C214.721189,230.762696 214.214358,230.876953 213.616699,230.876953 C212.491694,230.876953 211.598148,230.437504 210.936035,229.558594 C210.273922,228.679683 209.942871,227.487312 209.942871,225.981445 C209.942871,224.422844 210.273922,223.186528 210.936035,222.272461 C211.598148,221.358394 212.485834,220.901367 213.599121,220.901367 C214.161624,220.901367 214.662595,221.033202 215.102051,221.296875 C215.541506,221.560548 215.887206,221.932615 216.13916,222.413086 L216.13916,221.15625 L218.714355,221.15625 L218.714355,230.261719 Z M229.331543,224.610352 L229.331543,231 L226.773926,231 L226.773926,225.005859 C226.773926,224.296871 226.672853,223.790041 226.470703,223.485352 C226.268554,223.180663 225.938967,223.02832 225.481934,223.02832 C225.013181,223.02832 224.646974,223.234861 224.383301,223.647949 C224.119628,224.061037 223.987793,224.633785 223.987793,225.366211 L223.987793,231 L221.430176,231 L221.430176,217.324219 L223.987793,217.324219 L223.987793,222.632812 C224.169435,222.087888 224.479978,221.666017 224.919434,221.367188 C225.358889,221.068358 225.889157,220.918945 226.510254,220.918945 C227.441899,220.918945 228.145017,221.228024 228.619629,221.846191 C229.094241,222.464359 229.331543,223.385736 229.331543,224.610352 L229.331543,224.610352 Z M236.819824,218.361328 L236.819824,221.15625 L240.186035,221.15625 L240.186035,223.133789 L236.819824,223.133789 L236.819824,227.791992 C236.819824,228.231448 236.926757,228.546386 237.140625,228.736816 C237.354493,228.927247 237.710447,229.022461 238.208496,229.022461 L240.186035,229.022461 L240.186035,231 L238.023926,231 C236.547356,231 235.548342,230.764163 235.026855,230.29248 C234.505368,229.820798 234.244629,228.946295 234.244629,227.668945 L234.244629,223.133789 L231.730957,223.133789 L231.730957,221.15625 L234.244629,221.15625 L234.244629,218.361328 L236.819824,218.361328 Z M245.538574,221.657227 L248.465332,221.657227 L248.465332,224.865234 L245.538574,224.865234 L245.538574,221.657227 Z M245.538574,227.774414 L248.465332,227.774414 L248.465332,231 L245.538574,231 L245.538574,227.774414 Z M267.080566,228.714844 L272.608887,228.714844 L272.608887,231 L264.276855,231 L264.276855,228.785156 L265.683105,227.291016 C267.353036,225.515616 268.366697,224.422854 268.724121,224.012695 C269.163576,223.508787 269.47998,223.062014 269.67334,222.672363 C269.8667,222.282713 269.963379,221.897463 269.963379,221.516602 C269.963379,220.930661 269.786135,220.478029 269.431641,220.158691 C269.077147,219.839354 268.57471,219.679688 267.924316,219.679688 C267.461423,219.679688 266.941409,219.771972 266.364258,219.956543 C265.787106,220.141114 265.185062,220.409178 264.558105,220.760742 L264.558105,218.34375 C265.185062,218.115233 265.798825,217.940919 266.399414,217.820801 C267.000003,217.700683 267.575681,217.640625 268.126465,217.640625 C269.515144,217.640625 270.606441,217.964352 271.400391,218.611816 C272.19434,219.259281 272.591309,220.142573 272.591309,221.261719 C272.591309,221.777346 272.504884,222.26074 272.332031,222.711914 C272.159179,223.163088 271.861819,223.66406 271.439941,224.214844 C271.129393,224.613283 270.276862,225.509759 268.882324,226.904297 C268.126461,227.66016 267.525881,228.26367 267.080566,228.714844 L267.080566,228.714844 Z M283.788574,230.516602 C283.190915,230.762697 282.581546,230.947265 281.960449,231.070312 C281.339352,231.19336 280.683109,231.254883 279.991699,231.254883 C278.345207,231.254883 277.086918,230.813969 276.216797,229.932129 C275.346675,229.050289 274.911621,227.780282 274.911621,226.12207 C274.911621,224.516594 275.330562,223.248052 276.168457,222.316406 C277.006352,221.384761 278.148919,220.918945 279.596191,220.918945 C281.055183,220.918945 282.187496,221.35107 282.993164,222.215332 C283.798832,223.079594 284.20166,224.296867 284.20166,225.867188 L284.20166,226.913086 L277.530762,226.913086 C277.536621,227.686527 277.765134,228.26367 278.216309,228.644531 C278.667483,229.025393 279.341304,229.21582 280.237793,229.21582 C280.829593,229.21582 281.412595,229.13086 281.986816,228.960938 C282.561038,228.791015 283.161618,228.521486 283.788574,228.152344 L283.788574,230.516602 Z M281.608887,224.979492 C281.597168,224.299801 281.422853,223.785646 281.085938,223.437012 C280.749022,223.088377 280.252445,222.914062 279.596191,222.914062 C279.004392,222.914062 278.532717,223.094236 278.181152,223.45459 C277.829588,223.814943 277.621582,224.326169 277.557129,224.988281 L281.608887,224.979492 Z M291.004395,222.140625 C291.197755,221.724607 291.443846,221.416993 291.742676,221.217773 C292.041505,221.018554 292.407713,220.918945 292.841309,220.918945 C293.690922,220.918945 294.278319,221.211911 294.603516,221.797852 C294.928713,222.383792 295.091309,223.60253 295.091309,225.454102 L295.091309,231 L292.981934,231 L292.981934,224.680664 C292.981934,223.948239 292.92627,223.458986 292.814941,223.212891 C292.703613,222.966796 292.501466,222.84375 292.208496,222.84375 C291.915526,222.84375 291.71045,222.969725 291.593262,223.22168 C291.476074,223.473634 291.41748,223.959957 291.41748,224.680664 L291.41748,231 L289.334473,231 L289.334473,224.680664 C289.334473,223.959957 289.275879,223.473634 289.158691,223.22168 C289.041503,222.969725 288.836427,222.84375 288.543457,222.84375 C288.250487,222.84375 288.04834,222.966796 287.937012,223.212891 C287.825683,223.458986 287.77002,223.948239 287.77002,224.680664 L287.77002,231 L285.660645,231 L285.660645,221.15625 L287.532715,221.15625 L287.532715,222.175781 C287.6792,221.789061 287.913573,221.482911 288.23584,221.257324 C288.558107,221.031737 288.918455,220.918945 289.316895,220.918945 C289.715334,220.918945 290.078612,221.037596 290.406738,221.274902 C290.734865,221.512208 290.934082,221.80078 291.004395,222.140625 L291.004395,222.140625 Z M299.723145,227.774414 L302.649902,227.774414 L302.649902,230.15625 L300.927246,233.522461 L299.037598,233.522461 L299.723145,230.15625 L299.723145,227.774414 Z M299.723145,221.657227 L302.649902,221.657227 L302.649902,224.865234 L299.723145,224.865234 L299.723145,221.657227 Z" id="line-height:-2em;" fill="#7B8BA0"></path>
        </g>
    </g>
</svg>